SplineFontDB: 3.0
FontName: Ortega
FullName: Ortega
FamilyName: Ortega
Weight: Book
Copyright: Copyright (c) 2011 by vernon adams. All rights reserved.
Version: 1.000
ItalicAngle: 0
UnderlinePosition: -103
UnderlineWidth: 102
Ascent: 1638
Descent: 410
sfntRevision: 0x00010000
LayerCount: 2
Layer: 0 0 "Back"  1
Layer: 1 0 "Fore"  0
NeedsXUIDChange: 1
XUID: [1021 208 2069950124 15701285]
FSType: 0
OS2Version: 2
OS2_WeightWidthSlopeOnly: 0
OS2_UseTypoMetrics: 1
CreationTime: 1308064080
ModificationTime: 1315344530
PfmFamily: 17
TTFWeight: 400
TTFWidth: 5
LineGap: 50
VLineGap: 0
Panose: 2 0 5 5 4 0 0 2 0 0
OS2TypoAscent: -106
OS2TypoAOffset: 1
OS2TypoDescent: -41
OS2TypoDOffset: 1
OS2TypoLinegap: 99
OS2WinAscent: -127
OS2WinAOffset: 1
OS2WinDescent: -129
OS2WinDOffset: 1
HheadAscent: -127
HheadAOffset: 1
HheadDescent: 129
HheadDOffset: 1
OS2SubXSize: 1434
OS2SubYSize: 1331
OS2SubXOff: 0
OS2SubYOff: 286
OS2SupXSize: 1434
OS2SupYSize: 1331
OS2SupXOff: 0
OS2SupYOff: 976
OS2StrikeYSize: 102
OS2StrikeYPos: 512
OS2Vendor: 'newt'
OS2CodePages: 20000001.00000000
OS2UnicodeRanges: 800000af.4000204b.00000000.00000000
Lookup: 258 0 0 "'kern' Horizontal Kerning in Latin lookup 0"  {"'kern' Horizontal Kerning in Latin lookup 0 subtable"  } ['kern' ('latn' <'dflt' > ) ]
MarkAttachClasses: 1
DEI: 91125
TtTable: prep
PUSHW_2
 2048
 2048
MUL
DUP
PUSHB_1
 10
SWAP
WS
DUP
PUSHB_1
 0
SWAP
WCVTF
PUSHB_1
 16
RCVT
DUP
DUP
PUSHB_1
 40
ADD
FLOOR
DUP
ROLL
NEQ
IF
PUSHB_1
 10
RS
MUL
SWAP
DIV
PUSHB_1
 9
SWAP
WS
PUSHB_4
 5
 6
 3
 2
CALL
PUSHB_4
 7
 12
 3
 2
CALL
PUSHB_4
 13
 18
 3
 2
CALL
ELSE
PUSHB_2
 9
 10
RS
WS
EIF
PUSHB_3
 11
 40
 2
RCVT
GT
WS
PUSHB_4
 7
 12
 4
 2
CALL
EndTTInstrs
TtTable: fpgm
PUSHB_1
 0
FDEF
DUP
ABS
PUSHB_1
 32
ADD
FLOOR
SWAP
PUSHB_1
 0
LT
IF
NEG
EIF
ENDF
PUSHB_1
 1
FDEF
DUP
ABS
DUP
PUSHB_1
 192
LT
PUSHB_1
 4
MINDEX
AND
PUSHB_1
 11
RS
OR
IF
POP
SWAP
POP
ELSE
ROLL
IF
DUP
PUSHB_1
 80
LT
IF
POP
PUSHB_1
 64
EIF
ELSE
DUP
PUSHB_1
 56
LT
IF
POP
PUSHB_1
 56
EIF
EIF
DUP
PUSHB_1
 5
RCVT

StartChar: exclam
Encoding: 33 33 1
Width: 520
GlyphClass: 2
Flags: HW
LayerCount: 2
Fore
SplineSet
148 1469 m 1
 383 1469 l 1
 317 419 l 1
 198 419 l 1
 148 1469 l 1
394 108 m 0
 394 15.326171875 353.9609375 -20 262 -20 c 256
 170.041015625 -20 130 15.326171875 130 108 c 0
 130 208.66796875 164.911132812 249 262 249 c 256
 359.076171875 249 394 208.655273438 394 108 c 0
EndSplineSet
EndChar

StartChar: quotedbl
Encoding: 34 34 2
Width: 812
GlyphClass: 2
Flags: HW
LayerCount: 2
Fore
SplineSet
497 1233 m 1
 497 1469 l 1
 667 1469 l 1
 667 951 l 1
 525 951 l 1
 497 1233 l 1
142 1232 m 1
 142 1469 l 1
 312 1469 l 1
 312 951 l 1
 169 951 l 1
 142 1232 l 1
EndSplineSet
EndChar

StartChar: numbersign
Encoding: 35 35 3
Width: 1326
GlyphClass: 2
Flags: HW
LayerCount: 2
Fore
SplineSet
839 890 m 1
 540 890 l 1
 485 576 l 1
 783 576 l 1
 839 890 l 1
391 890 m 1
 145 890 l 1
 145 1029 l 1
 414 1029 l 1
 489 1469 l 1
 639 1469 l 1
 564 1029 l 1
 864 1029 l 1
 941 1469 l 1
 1089 1469 l 1
 1013 1029 l 1
 1251 1029 l 1
 1251 890 l 1
 988 890 l 1
 933 576 l 1
 1184 576 l 1
 1184 437 l 1
 909 437 l 1
 834 0 l 1
 682 0 l 1
 759 437 l 1
 461 437 l 1
 386 0 l 1
 236 0 l 1
 309 437 l 1
 74 437 l 1
 74 576 l 1
 334 576 l 1
 391 890 l 1
EndSplineSet
EndChar

StartChar: dollar
Encoding: 36 36 4
Width: 1328
GlyphClass: 2
Flags: HW
LayerCount: 2
Fore
SplineSet
605 1632 m 1
 751 1632 l 1
 751 -154 l 1
 605 -154 l 1
 605 1632 l 1
179 277 m 1
 280.840820312 188.921875 421.004882812 142 612 142 c 0
 852.209960938 142 1051 152.951171875 1051 389 c 0
 1051 548.860351562 952.157226562 588.7109375 823 621 c 1
 430 715 l 2
 231.390625 762.940429688 110 849.482421875 110 1093 c 0
 110 1410.67089844 358.857421875 1490 676 1490 c 0
 915.833984375 1490 1097.09960938 1434.90039062 1214 1318 c 1
 1111 1191 l 1
 1014.77636719 1273.47753906 886.844726562 1326 704 1326 c 0
 480.111328125 1326 293 1305.5 293 1087 c 0
 293 949.517578125 363.505859375 912.579101562 478 886 c 2
 871 792 l 2
 1038.76757812 750.849609375 1177.43652344 692.1953125 1219 534.5 c 128
 1230.33300781 491.5 1236 442 1236 386 c 0
 1236 46.146484375 959.646484375 -20 621 -20 c 0
 424.486328125 -20 265.161132812 10.751953125 153 88.5 c 128
 123.666992188 108.833007812 98 129.333007812 76 150 c 1
 179 277 l 1
EndSplineSet
EndChar

StartChar: percent
Encoding: 37 37 5
Width: 1710
GlyphClass: 2
Flags: HW
LayerCount: 2
Fore
SplineSet
1634 341 m 0
 1634 102.956054688 1520.69238281 0 1287 0 c 0
 1053.14453125 0 940 102.995117188 940 341 c 0
 940 573.721679688 1050.2890625 679 1287 679 c 256
 1523.71777344 679 1634 573.734375 1634 341 c 0
1287 108 m 256
 1435.85839844 108 1502 176.47265625 1502 327 c 0
 1502 452.416992188 1476.16796875 542.166015625 1377 562 c 128
 1350.33300781 567.333007812 1320.33300781 570 1287 570 c 256
 1174.28417969 570 1114.48046875 542.936523438 1087 455 c 128
 1077 423 1072 380.333007812 1072 327 c 0
 1072 175.791015625 1137.69335938 108 1287 108 c 256
780 1147 m 0
 780 908.956054688 666.692382812 806 433 806 c 0
 199.14453125 806 86 908.995117188 86 1147 c 0
 86 1379.72167969 196.2890625 1485 433 1485 c 256
 669.717773438 1485 780 1379.734375 780 1147 c 0
433 914 m 256
 581.858398438 914 648 982.47265625 648 1133 c 0
 648 1258.41699219 622.16796875 1348.16601562 523 1368 c 128
 496.333007812 1373.33300781 466.333007812 1376 433 1376 c 256
 320.284179688 1376 260.48046875 1348.93652344 233 1261 c 128
 223 1229 218 1186.33300781 218 1133 c 0
 218 981.791015625 283.693359375 914 433 914 c 256
1169 1644 m 1
 1286 1644 l 1
 541 -135 l 1
 425 -135 l 1
 1169 1644 l 1
EndSplineSet
EndChar

StartChar: ampersand
Encoding: 38 38 6
Width: 1525
GlyphClass: 2
Flags: HW
LayerCount: 2
Fore
SplineSet
1320 686 m 1
 1300.66699219 538.240234375 1268.79589844 424.27734375 1206 317 c 1
 1484 60 l 1
 1325 0 l 1
 1127 180 l 1
 1026.52929688 32.9697265625 859.096679688 -20 613 -20 c 0
 371.639648438 -20 206.688476562 28.5654296875 134 198.5 c 128
 109.333007812 256.166992188 97 331 97 423 c 0
 97 616.940429688 148.504882812 721.151367188 274 785 c 128
 312 804.333007812 355 824.666992188 403 846 c 1
 318.858398438 927.737304688 251 1009.72558594 251 1175 c 0
 251 1395.046875 422.849609375 1490 642 1490 c 0
 865.974609375 1490 1031 1402.03320312 1031 1179 c 0
 1031 1084.79785156 990.708007812 1015.22753906 941 961 c 128
 877.854492188 892.11328125 788.263671875 841.134765625 688 804 c 1
 1077 440 l 1
 1111.72167969 517.776367188 1133.43847656 586.71484375 1148 686 c 1
 1320 686 l 1
510 742 m 1
 402.401367188 700.859375 314.534179688 663.827148438 289.5 547 c 128
 282.5 514.333007812 279 473.666992188 279 425 c 0
 279 267.399414062 317.374023438 180.634765625 447 154.5 c 128
 488.333007812 146.166992188 539.666992188 142 601 142 c 0
 782.969726562 142 937.942382812 174.040039062 1004 292 c 1
 510 742 l 1
646 1340 m 0
 523.509765625 1340 427 1297.23535156 427 1175 c 0
 427 1081.14941406 459.0546875 1031.29785156 506 981 c 128
 524.666992188 961 547.333007812 938.333007812 574 913 c 1
 689.33984375 949.909179688 796.662109375 999.624023438 839 1101.5 c 128
 849.666992188 1127.16699219 855 1153.66699219 855 1181 c 0
 855 1304.35546875 773.944335938 1340 646 1340 c 0
EndSplineSet
EndChar

StartChar: quotesingle
Encoding: 39 39 7
Width: 453
GlyphClass: 2
Flags: HW
LayerCount: 2
Fore
SplineSet
165 951 m 1
 154.29296875 1126.33007812 148.70703125 1293.66601562 138 1469 c 1
 308 1469 l 1
 308 951 l 1
 165 951 l 1
EndSplineSet
EndChar

StartChar: parenleft
Encoding: 40 40 8
Width: 668
GlyphClass: 2
Flags: HW
LayerCount: 2
Fore
SplineSet
118 522 m 0
 118 712.6484375 131.806640625 904.034179688 164 1065 c 1
 176.002929688 1149.0234375 217.584960938 1234.12890625 256 1301 c 128
 290.143554688 1360.43457031 334.899414062 1415.37890625 392 1449.5 c 128
 419.333007812 1465.83300781 448.666992188 1474 480 1474 c 2
 612 1474 l 1
 597.469726562 1438.3359375 585.138671875 1401.76660156 573 1364 c 1
 454.17578125 1277.35742188 373.016601562 1169.99902344 337 1001 c 0
 313.736328125 891.141601562 306 740.74609375 306 608 c 0
 306 378.95703125 331.267578125 155.837890625 420.5 12 c 128
 467.900390625 -64.40625 531.563476562 -121.661132812 610 -171 c 1
 496 -224 l 1
 429 -198 l 1
 241.0078125 -41.78125 118 177.552734375 118 522 c 0
EndSplineSet
EndChar

StartChar: parenright
Encoding: 41 41 9
Width: 668
GlyphClass: 2
Flags: HW
LayerCount: 2
Fore
SplineSet
62 -171 m 1
 211.802734375 -54.1533203125 314.28125 77.4599609375 347 313.5 c 128
 360.651367188 411.987304688 366 521.755859375 366 634 c 0
 366 838.149414062 347.950195312 1052.18457031 271 1183 c 128
 227.625976562 1256.73535156 171.083007812 1310.87011719 100 1362 c 1
 86.5791015625 1400.921875 74.7666015625 1436.41308594 60 1474 c 1
 220 1474 l 1
 348.071289062 1388.61914062 437.522460938 1281.36914062 495 1122 c 1
 539.84375 982.344726562 555 802.884765625 555 621 c 0
 555 231.62109375 485.346679688 -57.67578125 239 -202 c 1
 176 -224 l 1
 62 -171 l 1
EndSplineSet
EndChar

StartChar: asterisk
Encoding: 42 42 10
Width: 1110
GlyphClass: 2
Flags: HW
LayerCount: 2
Fore
SplineSet
613 1163 m 1
 980 1334 l 1
 1036 1141 l 1
 658 1053 l 1
 903 727 l 1
 725 631 l 1
 549 989 l 1
 391 631 l 1
 207 727 l 1
 449 1053 l 1
 74 1141 l 1
 133 1334 l 1
 494 1163 l 1
 451 1556 l 1
 656 1556 l 1
 613 1163 l 1
EndSplineSet
EndChar

StartChar: plus
Encoding: 43 43 11
Width: 1159
GlyphClass: 2
Flags: HW
LayerCount: 2
Fore
SplineSet
508 582 m 1
 101 582 l 1
 101 730 l 1
 508 730 l 1
 508 1137 l 1
 655 1137 l 1
 655 730 l 1
 1062 730 l 1
 1062 582 l 1
 655 582 l 1
 655 177 l 1
 508 177 l 1
 508 582 l 1
EndSplineSet
EndChar

StartChar: comma
Encoding: 44 44 12
Width: 541
GlyphClass: 2
Flags: HW
LayerCount: 2
Fore
SplineSet
120 -216 m 1
 164.146484375 -86.15625 186.625976562 68.013671875 196 243 c 1
 420 243 l 1
 392.080078125 41.3525390625 325.034179688 -139.530273438 213 -254 c 1
 120 -216 l 1
EndSplineSet
EndChar

StartChar: hyphen
Encoding: 45 45 13
Width: 802
GlyphClass: 2
Flags: HW
LayerCount: 2
Fore
SplineSet
146 630 m 1
 667 630 l 1
 667 464 l 1
 146 464 l 1
 146 630 l 1
EndSplineSet
EndChar

StartChar: period
Encoding: 46 46 14
Width: 523
GlyphClass: 2
Flags: HW
LayerCount: 2
Fore
SplineSet
398 108 m 0
 398 15.326171875 357.9609375 -20 266 -20 c 256
 174.041015625 -20 134 15.326171875 134 108 c 0
 134 208.66796875 168.911132812 249 266 249 c 256
 363.076171875 249 398 208.655273438 398 108 c 0
EndSplineSet
EndChar

StartChar: slash
Encoding: 47 47 15
Width: 925
GlyphClass: 2
Flags: HW
LayerCount: 2
Fore
SplineSet
778 1644 m 1
 895 1644 l 1
 150 -135 l 1
 34 -135 l 1
 778 1644 l 1
EndSplineSet
EndChar

StartChar: zero
Encoding: 48 48 16
Width: 1443
GlyphClass: 2
Flags: HW
LayerCount: 2
Fore
SplineSet
312 737 m 0
 312 501.665039062 300.200195312 259.997070312 454.5 182 c 128
 523.166015625 147.290039062 613.697265625 142 723 142 c 256
 880.54296875 142 1003.00097656 154.608398438 1065 246.5 c 128
 1138.76660156 355.833007812 1134 545.954101562 1134 737 c 0
 1134 886.139648438 1134.55566406 1012.39257812 1108.5 1122.5 c 128
 1079.28222656 1245.96679688 1015.71191406 1303.078125 880 1318.5 c 128
 836 1323.5 783.666992188 1326 723 1326 c 256
 567.616210938 1326 443.3984375 1317.140625 381 1228 c 128
 336.96484375 1165.09277344 322.803710938 1072.18261719 317 962.5 c 128
 313.666992188 899.5 312 824.333007812 312 737 c 0
126 737 m 256
 126 1039.11035156 143.787109375 1300.00195312 331.5 1411.5 c 128
 429.456054688 1469.68457031 559.397460938 1490 723 1490 c 256
 955.266601562 1490 1131.54589844 1448.03515625 1221 1310.5 c 128
 1309.59667969 1174.28222656 1320 967.0703125 1320 737 c 256
 1320 433.029296875 1301.72851562 173.526367188 1114.5 59.5 c 128
 1016.984375 0.111328125 887.079101562 -20 723 -20 c 256
 489.124023438 -20 315.060546875 23.03125 225 161.5 c 128
 136.282226562 297.903320312 126 506.969726562 126 737 c 256
EndSplineSet
EndChar

StartChar: one
Encoding: 49 49 17
Width: 857
GlyphClass: 2
Flags: HW
LayerCount: 2
Fore
SplineSet
514 1286 m 1
 402.681640625 1185.81347656 271.874023438 1082.16113281 152 985 c 1
 54 1110 l 1
 511 1469 l 1
 689 1469 l 1
 689 0 l 1
 508 0 l 1
 508 900 l 2
 508 1028.50878906 510.953125 1161.08007812 514 1286 c 1
EndSplineSet
EndChar

StartChar: two
Encoding: 50 50 18
Width: 1325
GlyphClass: 2
Flags: HW
LayerCount: 2
Fore
SplineSet
674 1490 m 0
 1001.06640625 1490 1220 1394.56640625 1220 1077 c 0
 1220 886.306640625 1180.22558594 784.353515625 1067 704 c 128
 1025.66699219 674.666992188 971.666992188 645.666992188 905 617 c 1
 637 494 l 2
 540.9765625 449.942382812 457.77734375 411.7734375 393.5 350 c 128
 345.87109375 304.2265625 319 249.625 319 161 c 1
 1178 161 l 1
 1178 0 l 1
 108 0 l 1
 108 170 l 2
 108 366.620117188 208.649414062 463.424804688 335.5 538.5 c 128
 384.5 567.5 440.666992188 597.333007812 504 628 c 1
 803 765 l 2
 858.333007812 790.333007812 901.5 812.833007812 932.5 832.5 c 128
 982.450195312 864.188476562 1021.10546875 897.86328125 1030.5 958.5 c 128
 1034.16699219 982.166992188 1036 1010.33300781 1036 1043 c 0
 1036 1202.66699219 990.293945312 1283.29003906 858 1311.5 c 128
 812.666992188 1321.16699219 754.666992188 1326 684 1326 c 0
 477.250976562 1326 333.0859375 1280.74511719 215 1191 c 1
 112 1318 l 1
 244.029296875 1438.44726562 424.223632812 1490 674 1490 c 0
EndSplineSet
EndChar

StartChar: three
Encoding: 51 51 19
Width: 1355
GlyphClass: 2
Flags: HW
LayerCount: 2
Fore
SplineSet
1003 762 m 1
 1160.88183594 724.682617188 1250 612.604492188 1250 416 c 0
 1250 140.692382812 1132.44628906 24.87109375 888.5 -5 c 128
 806.833007812 -15 710.666992188 -20 600 -20 c 0
 441.963867188 -20 318.626953125 5.8623046875 223 54.5 c 128
 163.899414062 84.5595703125 127.955078125 118.887695312 91 153 c 1
 194 280 l 1
 290.545898438 197.24609375 417.899414062 142 609 142 c 0
 761.584960938 142 888.823242188 145.65625 975 196.5 c 128
 1040.68945312 235.256835938 1063 297.278320312 1063 400 c 0
 1063 585.615234375 981.546875 667.421875 803 672 c 128
 777 672.666992188 751.666992188 673 727 673 c 2
 437 673 l 1
 437 828 l 1
 724 828 l 2
 918.534179688 828 1025 900.088867188 1025 1099 c 0
 1025 1254.10351562 947.14453125 1310.73828125 804.5 1321 c 128
 758.166992188 1324.33300781 706.333007812 1326 649 1326 c 0
 446.603515625 1326 308.793945312 1271.35644531 194 1191 c 1
 91 1318 l 1
 140.616210938 1360.77246094 192.504882812 1399.14257812 266 1429 c 128
 368.987304688 1470.83886719 492.635742188 1490 650 1490 c 0
 888.703125 1490 1084.06445312 1441.98730469 1171 1292.5 c 128
 1198.33300781 1245.5 1212 1187.66699219 1212 1119 c 0
 1212 922.017578125 1157.33203125 807.33984375 1003 768 c 1
 1003 762 l 1
EndSplineSet
EndChar

StartChar: four
Encoding: 52 52 20
Width: 1423
GlyphClass: 2
Flags: HW
LayerCount: 2
Fore
SplineSet
81 506 m 1
 925 1470 l 1
 1141 1470 l 1
 1141 488 l 1
 1365 488 l 1
 1365 322 l 1
 1141 322 l 1
 1141 0 l 1
 961 0 l 1
 961 322 l 1
 81 322 l 1
 81 506 l 1
970 488 m 1
 970 1297 l 1
 740.958984375 1020.70703125 498.640625 757.693359375 263 488 c 1
 970 488 l 1
EndSplineSet
EndChar

StartChar: five
Encoding: 53 53 21
Width: 1338
GlyphClass: 2
Flags: HW
LayerCount: 2
Fore
SplineSet
506 776 m 0
 399.244140625 776 306.21484375 759.861328125 250 709 c 1
 168 747 l 1
 168 1469 l 1
 1152 1469 l 1
 1152 1311 l 1
 336 1311 l 1
 309 870 l 1
 311 870 l 1
 377.583984375 924.477539062 470.509765625 934 596 934 c 0
 884.1796875 934 1102.27441406 890.564453125 1196 697 c 128
 1226.66699219 633.666992188 1242 551 1242 449 c 0
 1242 175.432617188 1145.18554688 38.12890625 913.5 -1 c 128
 838.5 -13.6669921875 749.333007812 -20 646 -20 c 0
 416.9765625 -20 237.452148438 12.734375 120 119 c 128
 106 131.666992188 92.6669921875 143 80 153 c 1
 183 280 l 1
 291.928710938 185.791015625 420.0625 142 630 142 c 0
 827.004882812 142 1003.0234375 151.912109375 1040 298.5 c 128
 1049.33300781 335.5 1054 380.333007812 1054 433 c 0
 1054 631.032226562 979.135742188 723.514648438 814 756 c 128
 723.579101562 773.788085938 619.51171875 776 506 776 c 0
EndSplineSet
EndChar

StartChar: six
Encoding: 54 54 22
Width: 1377
GlyphClass: 2
Flags: HW
LayerCount: 2
Fore
SplineSet
751 755 m 0
 507.9296875 755 306 716.357421875 306 482 c 0
 306 290.768554688 378.881835938 192.810546875 536 159 c 128
 588.666992188 147.666992188 651.333007812 142 724 142 c 0
 912.208984375 142 1049.88085938 169.358398438 1084.5 315 c 128
 1094.16699219 355.666992188 1099 404.666992188 1099 462 c 0
 1099 623.365234375 1054.35351562 709.22265625 922.5 739.5 c 128
 877.5 749.833007812 820.333007812 755 751 755 c 0
1132 1191 m 1
 1038.69433594 1270.97558594 901.91015625 1326 727 1326 c 0
 582.270507812 1326 476.280273438 1308.71386719 407 1234 c 128
 325.008789062 1145.578125 307 999.809570312 307 813 c 0
 307 784.782226562 307.735351562 756.823242188 309 729 c 1
 319 729 l 1
 378.541992188 871.900390625 552.990234375 905 752 905 c 0
 1003.83789062 905 1180.03125 848.48828125 1247.5 667.5 c 128
 1268.5 611.166992188 1279 542.666992188 1279 462 c 0
 1279 96.7294921875 1065.22851562 -20 703 -20 c 0
 375.268554688 -20 193.587890625 88.8798828125 144.5 360.5 c 128
 129.5 443.5 122 538.666992188 122 646 c 0
 122 970.916015625 139.858398438 1257.95703125 325.5 1394 c 128
 418.678710938 1462.28320312 546.33203125 1490 713 1490 c 0
 940.048828125 1490 1119.26464844 1431.27246094 1235 1318 c 1
 1132 1191 l 1
EndSplineSet
EndChar

StartChar: seven
Encoding: 55 55 23
Width: 1348
GlyphClass: 2
Flags: HW
LayerCount: 2
Fore
SplineSet
1081 1311 m 1
 80 1311 l 1
 80 1469 l 1
 1268 1469 l 1
 1268 1298 l 1
 536 0 l 1
 327 0 l 1
 1081 1311 l 1
EndSplineSet
EndChar

StartChar: eight
Encoding: 56 56 24
Width: 1354
GlyphClass: 2
Flags: HW
LayerCount: 2
Fore
SplineSet
681 140 m 256
 861.561523438 140 1022.80957031 150.358398438 1058 283 c 128
 1066.66699219 315.666992188 1071 354.666992188 1071 400 c 0
 1071 553.141601562 980.875 609.114257812 860 647.5 c 128
 810.666992188 663.166992188 751 677.666992188 681 691 c 1
 561.271484375 668.194335938 457.52734375 644.732421875 381 591 c 128
 322.526367188 549.943359375 291 495.015625 291 400 c 0
 291 243.88671875 341.26953125 181.24609375 476 155 c 128
 527.333007812 145 595.666992188 140 681 140 c 256
681 847 m 1
 870.356445312 877.216796875 1034 902.024414062 1034 1117 c 0
 1034 1240.94726562 983.057617188 1284.11230469 876 1310.5 c 128
 828.666992188 1322.16699219 763.666992188 1328 681 1328 c 0
 515.780273438 1328 347.237304688 1314.92773438 331 1171.5 c 128
 329 1153.83300781 328 1135.66699219 328 1117 c 0
 328 903.53515625 492.325195312 876.791015625 681 847 c 1
940 765 m 1
 1116.13378906 713.720703125 1253 630.48828125 1253 407 c 0
 1253 155.63671875 1134.43457031 35.158203125 920.5 -1 c 128
 849.5 -13 769.666992188 -19 681 -19 c 0
 335.353515625 -19 109 61.1865234375 109 407 c 0
 109 630.48046875 245.880859375 713.724609375 422 765 c 1
 422 767 l 1
 294.069335938 809.643554688 187.420898438 867.469726562 158.5 999.5 c 128
 150.833007812 1034.5 147 1073.66699219 147 1117 c 0
 147 1406.21191406 387.541015625 1490 681 1490 c 0
 914.865234375 1490 1102.35253906 1435.70898438 1179.5 1282.5 c 128
 1203.16699219 1235.5 1215 1180.33300781 1215 1117 c 0
 1215 899.99609375 1107.50097656 822.833984375 940 767 c 1
 940 765 l 1
EndSplineSet
EndChar

StartChar: nine
Encoding: 57 57 25
Width: 1384
GlyphClass: 2
Flags: HW
LayerCount: 2
Fore
SplineSet
634 713 m 0
 877.0703125 713 1079 751.642578125 1079 986 c 0
 1079 1178.79394531 1008.5859375 1278.67871094 849 1311 c 128
 796.333007812 1321.66699219 733.666992188 1327 661 1327 c 0
 473.143554688 1327 335.055664062 1301.37402344 300.5 1156 c 128
 290.833007812 1115.33300781 286 1065.33300781 286 1006 c 0
 286 844.634765625 330.646484375 758.77734375 462.5 728.5 c 128
 507.5 718.166992188 564.666992188 713 634 713 c 0
106 1006 m 0
 106 1370.88867188 320.022460938 1490 682 1490 c 0
 1009.94726562 1490 1191.38183594 1379.2890625 1240.5 1107.5 c 128
 1255.5 1024.5 1263 929.333007812 1263 822 c 0
 1263 497.67578125 1245.61816406 210.470703125 1059.5 75.5 c 128
 966.143554688 7.798828125 838.4140625 -20 672 -20 c 0
 418.499023438 -20 242.438476562 24.3037109375 116 153 c 1
 219 277 l 1
 332.041992188 180.443359375 467.63671875 142 678 142 c 0
 869.94921875 142 983.7578125 187.943359375 1036 328.5 c 128
 1068.39257812 415.651367188 1077 523.51171875 1077 651 c 2
 1077 694 l 130
 1077 708.666992188 1076.66699219 723.666992188 1076 739 c 1
 1066 739 l 1
 1006.56445312 596.35546875 831.66015625 563 633 563 c 0
 294.823242188 563 106 668.856445312 106 1006 c 0
EndSplineSet
EndChar

StartChar: colon
Encoding: 58 58 26
Width: 528
GlyphClass: 2
Flags: HW
LayerCount: 2
Fore
SplineSet
399 108 m 0
 399 15.326171875 358.9609375 -20 267 -20 c 256
 175.041015625 -20 135 15.326171875 135 108 c 0
 135 208.66796875 169.911132812 249 267 249 c 256
 364.076171875 249 399 208.655273438 399 108 c 0
399 958 m 0
 399 865.326171875 358.9609375 830 267 830 c 256
 175.041015625 830 135 865.326171875 135 958 c 0
 135 1058.66796875 169.911132812 1099 267 1099 c 256
 364.076171875 1099 399 1058.65527344 399 958 c 0
EndSplineSet
EndChar

StartChar: semicolon
Encoding: 59 59 27
Width: 542
GlyphClass: 2
Flags: HW
LayerCount: 2
Fore
SplineSet
422 958 m 0
 422 865.326171875 381.9609375 830 290 830 c 256
 198.041015625 830 158 865.326171875 158 958 c 0
 158 1058.66796875 192.911132812 1099 290 1099 c 256
 387.076171875 1099 422 1058.65527344 422 958 c 0
105 -216 m 1
 149.146484375 -86.15625 171.625976562 68.013671875 181 243 c 1
 405 243 l 1
 377.080078125 41.3525390625 310.034179688 -139.530273438 198 -254 c 1
 105 -216 l 1
EndSplineSet
EndChar

StartChar: less
Encoding: 60 60 28
Width: 1181
GlyphClass: 2
Flags: HW
LayerCount: 2
Fore
SplineSet
101 709 m 1
 1062 1183 l 1
 1062 1017 l 1
 301 655 l 1
 1062 321 l 1
 1062 155 l 1
 101 590 l 1
 101 709 l 1
EndSplineSet
EndChar

StartChar: equal
Encoding: 61 61 29
Width: 1260
GlyphClass: 2
Flags: HW
LayerCount: 2
Fore
SplineSet
155 451 m 1
 1116 451 l 1
 1116 313 l 1
 155 313 l 1
 155 451 l 1
155 749 m 1
 1116 749 l 1
 1116 611 l 1
 155 611 l 1
 155 749 l 1
EndSplineSet
EndChar

StartChar: greater
Encoding: 62 62 30
Width: 1185
GlyphClass: 2
Flags: HW
LayerCount: 2
Fore
SplineSet
1088 590 m 1
 127 155 l 1
 127 321 l 1
 888 655 l 1
 127 1017 l 1
 127 1183 l 1
 1088 709 l 1
 1088 590 l 1
EndSplineSet
EndChar

StartChar: question
Encoding: 63 63 31
Width: 1129
GlyphClass: 2
Flags: HW
LayerCount: 2
Fore
SplineSet
526 1488 m 0
 834.737304688 1488 1039 1409.32324219 1039 1106 c 0
 1039 909.860351562 961.212890625 801.911132812 837.5 730.5 c 128
 796.5 706.833007812 752 683.666992188 704 661 c 1
 655 630 l 2
 590.9453125 588.674804688 549 544.889648438 549 442 c 2
 549 427 l 1
 402 427 l 1
 402 456 l 2
 402 578.115234375 423.40625 651.368164062 487 709 c 128
 508.333007812 728.333007812 535 748.333007812 567 769 c 1
 626.333007812 801 675.333007812 827.666992188 714 849 c 128
 813.963867188 904.15234375 866 951.922851562 866 1103 c 0
 866 1299.87109375 737.96484375 1334 537 1334 c 0
 366.805664062 1334 242.740234375 1317.64160156 181 1211 c 1
 166 1161 l 1
 132 1173 l 130
 120.666992188 1177 109.333007812 1181.33300781 98 1186 c 1
 85 1268 l 2
 80.3330078125 1293.33300781 78 1318 78 1342 c 0
 78 1353.08398438 78.7392578125 1364.91308594 80 1375 c 1
 184.635742188 1459.51367188 336.4765625 1488 526 1488 c 0
519 -20 m 1
 438.028320312 -20 382.237304688 12.626953125 359 75 c 1
 359 163.4296875 391.314453125 221.174804688 445 251 c 1
 525.813476562 251 581.944335938 220.098632812 605 157 c 1
 605 69.3154296875 570.931640625 11.1591796875 519 -20 c 1
EndSplineSet
EndChar

StartChar: at
Encoding: 64 64 32
Width: 1729
GlyphClass: 2
Flags: HW
LayerCount: 2
Fore
SplineSet
864 3 m 0
 1059.50683594 3 1200.21191406 49.3896484375 1322 131 c 1
 1361 36 l 1
 1243.30761719 -62.912109375 1076.90234375 -128 867 -128 c 0
 497.314453125 -128 259.125976562 41.76953125 157 312.5 c 128
 121.666992188 406.166992188 104 512 104 630 c 0
 104 989.405273438 271.885742188 1231.11523438 500.5 1365 c 128
 611.868164062 1430.22070312 751.153320312 1474 920 1474 c 0
 1143.609375 1474 1316.35449219 1392.28417969 1433 1277.5 c 128
 1547.76855469 1164.5625 1630 995.802734375 1630 778 c 0
 1630 555.556640625 1540.44921875 378.59765625 1399.5 295 c 128
 1351.16699219 266.333007812 1297.33300781 252 1238 252 c 0
 1127.4453125 252 1068.03710938 326.265625 1063 427 c 1
 1013.70996094 328.419921875 919.928710938 248 777 248 c 0
 623.461914062 248 533.829101562 350.766601562 497.5 470 c 128
 484.5 512.666992188 478 556.666992188 478 602 c 0
 478 809.96484375 564.575195312 958.724609375 696.5 1037.5 c 128
 742.833007812 1065.16699219 795.666992188 1082 855 1088 c 1
 865 1088 l 2
 953.123046875 1088 1022.12207031 1064.86035156 1075 1024 c 1
 1087 1063 l 1
 1142.96679688 1063 1203.43847656 1057.0078125 1250 1051 c 1
 1228.68652344 899.142578125 1208.10253906 750.776367188 1188 598 c 1
 1185.63867188 568.487304688 1183 554.09765625 1183 529 c 130
 1183 518 l 2
 1183 428.666992188 1210.66699219 384 1266 384 c 0
 1345.83886719 384 1396.05566406 436.680664062 1427.5 493.5 c 128
 1465.83203125 562.766601562 1486 660.401367188 1486 769 c 0
 1486 1047.51367188 1345.05566406 1223.13574219 1138 1294.5 c 128
 1069.33300781 1318.16699219 996.333007812 1330 919 1330 c 0
 696.029296875 1330 533.340820312 1248.52539062 424.5 1129.5 c 128
 319.171875 1014.31738281 251 843.890625 251 632 c 0
 251 327.497070312 384.962890625 128.829101562 607.5 45.5 c 128
 683.166992188 17.1669921875 768.666992188 3 864 3 c 0
1070 915 m 1
 1035.26757812 942.290039062 966.903320312 957 906 957 c 0
 723.788085938 957 639 798.95703125 639 619 c 0
 639 481.5546875 688.64453125 381 818 381 c 0
 896.297851562 381 937.9296875 423.505859375 969.5 480 c 128
 1016.17285156 563.51953125 1036.89550781 672.565429688 1054 798 c 2
 1070 915 l 1
EndSplineSet
EndChar

StartChar: A
Encoding: 65 65 33
Width: 1626
GlyphClass: 2
Flags: HW
LayerCount: 2
Fore
SplineSet
718 1469 m 1
 914 1469 l 1
 1563 0 l 1
 1361 0 l 1
 1193 408 l 1
 441 408 l 1
 270 0 l 1
 69 0 l 1
 718 1469 l 1
816 1299 m 1
 506 556 l 1
 1128 556 l 1
 816 1299 l 1
EndSplineSet
EndChar

StartChar: B
Encoding: 66 66 34
Width: 1496
GlyphClass: 2
Flags: HW
LayerCount: 2
Fore
SplineSet
774 160 m 2
 925.650390625 160 1085.48828125 147.640625 1146 240 c 128
 1174.89257812 284.099609375 1182 346.375 1182 424 c 0
 1182 597.521484375 1121.30859375 673.53125 965.5 687.5 c 128
 917.166992188 691.833007812 860.666992188 694 796 694 c 2
 365 694 l 1
 365 160 l 1
 774 160 l 2
1140 1091 m 0
 1140 1200.97265625 1107.73242188 1256.38378906 1027.5 1284.5 c 128
 988.5 1298.16699219 938 1306 876 1308 c 128
 814 1310 739 1311 651 1311 c 2
 365 1311 l 1
 365 852 l 1
 807 852 l 2
 953.557617188 852 1066.02441406 861.068359375 1115.5 958 c 128
 1131.83300781 990 1140 1034.33300781 1140 1091 c 0
1334 1100 m 0
 1334 894.602539062 1238.98828125 817.754882812 1059 791 c 1
 1059 781 l 1
 1286.77929688 764.534179688 1380 652.975585938 1380 407 c 0
 1380 112.346679688 1231.56054688 9.904296875 947 2 c 128
 899 0.6669921875 850 0 800 0 c 2
 174 0 l 1
 174 1469 l 1
 679 1469 l 2
 911.366210938 1469 1145.1015625 1471.65332031 1256 1352 c 128
 1309.08886719 1294.71972656 1334 1212.97363281 1334 1100 c 0
EndSplineSet
EndChar

StartChar: C
Encoding: 67 67 35
Width: 1484
GlyphClass: 2
Flags: HW
LayerCount: 2
Fore
SplineSet
834 1326 m 0
 596.712890625 1326 440.35546875 1295.65234375 370.5 1128 c 128
 327.002929688 1023.60644531 316 890.309570312 316 731 c 256
 316 462.543945312 338.275390625 241.146484375 533 174 c 128
 616.810546875 145.099609375 717.1875 143 834 143 c 0
 983.344726562 143 1104.47167969 144.2265625 1194 201 c 128
 1221.33300781 218.333007812 1247.66699219 242.666992188 1273 274 c 1
 1402 161 l 1
 1310.484375 55.12890625 1204.23339844 -1.2470703125 1022.5 -14 c 128
 965.5 -18 899.333007812 -20 824 -20 c 0
 445.407226562 -20 222.109375 70.486328125 151.5 374 c 128
 129.166992188 470 118 589 118 731 c 0
 118 1069.80761719 180.486328125 1312.41503906 409.5 1419 c 128
 521.927734375 1471.32421875 664.450195312 1490 834 1490 c 0
 1096.08691406 1490 1293.75878906 1460.46386719 1395 1304 c 1
 1271 1194 l 1
 1205.93945312 1277.1328125 1132.84277344 1315.13671875 994 1322.5 c 128
 950 1324.83300781 896.666992188 1326 834 1326 c 0
EndSplineSet
EndChar

StartChar: D
Encoding: 68 68 36
Width: 1632
GlyphClass: 2
Flags: HW
LayerCount: 2
Fore
SplineSet
756 1469 m 2
 1001.62304688 1469 1220.08007812 1463.828125 1346 1350.5 c 128
 1479.86328125 1230.0234375 1496 995.888671875 1496 731 c 256
 1496 466.779296875 1481.89941406 233.603515625 1346 115 c 128
 1219.75195312 4.8203125 999.907226562 0 756 0 c 2
 174 0 l 1
 174 1469 l 1
 756 1469 l 2
365 1311 m 1
 365 161 l 1
 756 161 l 2
 942.204101562 161 1127.99511719 149.452148438 1217 241 c 128
 1270.75390625 296.2890625 1287.14355469 387.719726562 1293 499 c 128
 1296.33300781 562.333007812 1298 639.666992188 1298 731 c 256
 1298 885.034179688 1300.75292969 1014.65722656 1270 1124 c 128
 1232.54003906 1257.19238281 1136.48144531 1296.83886719 972.5 1306 c 128
 912.833007812 1309.33300781 840.666992188 1311 756 1311 c 2
 365 1311 l 1
EndSplineSet
EndChar

StartChar: E
Encoding: 69 69 37
Width: 1288
GlyphClass: 2
Flags: HW
LayerCount: 2
Fore
SplineSet
174 1469 m 1
 1160 1469 l 1
 1160 1311 l 1
 365 1311 l 1
 365 846 l 1
 1118 846 l 1
 1118 683 l 1
 365 683 l 1
 365 161 l 1
 1162 161 l 1
 1162 0 l 1
 174 0 l 1
 174 1469 l 1
EndSplineSet
EndChar

StartChar: F
Encoding: 70 70 38
Width: 1251
GlyphClass: 2
Flags: HW
LayerCount: 2
Fore
SplineSet
174 1469 m 1
 1146 1469 l 1
 1146 1311 l 1
 365 1311 l 1
 365 803 l 1
 1105 803 l 1
 1105 639 l 1
 365 639 l 1
 365 0 l 1
 174 0 l 1
 174 1469 l 1
EndSplineSet
EndChar

StartChar: G
Encoding: 71 71 39
Width: 1622
GlyphClass: 2
Flags: HW
LayerCount: 2
Fore
SplineSet
117 731 m 0
 117 1073.46289062 184.994140625 1314.23828125 420 1419 c 128
 538.120117188 1471.65625 686.745117188 1490 863 1490 c 0
 1073.63183594 1490 1254.10644531 1481.15917969 1374.5 1397 c 128
 1408.83300781 1373 1438.66699219 1342.33300781 1464 1305 c 1
 1338 1187 l 1
 1271.36914062 1277.69238281 1188.69628906 1315.39550781 1039.5 1322.5 c 128
 990.5 1324.83300781 931.666992188 1326 863 1326 c 0
 686.604492188 1326 539.301757812 1316.33203125 446.5 1235 c 128
 336.01171875 1138.16699219 315 950.122070312 315 734 c 0
 315 467.525390625 351.190429688 278.9921875 536 199 c 128
 637.129882812 155.227539062 765.784179688 144 919 144 c 0
 1058.28222656 144 1193.72460938 148.751953125 1292 183 c 1
 1298 251.666992188 1301 331 1301 421 c 2
 1301 596 l 1
 852 596 l 1
 852 760 l 1
 1490 760 l 1
 1490 512 l 2
 1490 348.157226562 1481.59082031 204.815429688 1454 71 c 1
 1303.78222656 -2.8359375 1115.94433594 -20 889 -20 c 0
 633.520507812 -20 435.8984375 14.791015625 304 133.5 c 128
 165.83203125 257.850585938 117 456.444335938 117 731 c 0
EndSplineSet
EndChar

StartChar: H
Encoding: 72 72 40
Width: 1609
GlyphClass: 2
Flags: HW
LayerCount: 2
Fore
SplineSet
174 1469 m 1
 365 1469 l 1
 365 846 l 1
 1250 846 l 1
 1250 1469 l 1
 1440 1469 l 1
 1440 0 l 1
 1250 0 l 1
 1250 682 l 1
 365 682 l 1
 365 0 l 1
 174 0 l 1
 174 1469 l 1
EndSplineSet
EndChar

StartChar: I
Encoding: 73 73 41
Width: 651
GlyphClass: 2
Flags: W
HStem: 0 138<121 237 428 544> 1330 139<121 237 428 544>
VStem: 121 423<0 138 1330 1469>
LayerCount: 2
Fore
SplineSet
121 138 m 1
 237 138 l 1
 237 1330 l 1
 121 1330 l 1
 121 1469 l 1
 544 1469 l 1
 544 1330 l 1
 428 1330 l 1
 428 138 l 1
 544 138 l 1
 544 0 l 1
 121 0 l 1
 121 138 l 1
EndSplineSet
EndChar

StartChar: J
Encoding: 74 74 42
Width: 943
GlyphClass: 2
Flags: HW
LayerCount: 2
Fore
SplineSet
137 -15 m 1
 173.397460938 -66.99609375 254.426757812 -103 341 -103 c 0
 492.374023438 -103 555.899414062 -36.9716796875 575.5 96.5 c 128
 582.5 144.166992188 586 202.666992188 586 272 c 2
 586 1469 l 1
 777 1469 l 1
 777 290 l 2
 777 24.62109375 728.100585938 -174.849609375 536.5 -239.5 c 128
 482.166992188 -257.833007812 417.666992188 -267 343 -267 c 0
 186.90625 -267 89.0703125 -213.298828125 18 -125 c 1
 137 -15 l 1
EndSplineSet
EndChar

StartChar: K
Encoding: 75 75 43
Width: 1483
GlyphClass: 2
Flags: HW
LayerCount: 2
Fore
SplineSet
174 1469 m 1
 365 1469 l 1
 365 771 l 1
 1136 1468 l 1
 1385 1468 l 1
 668 837 l 1
 1429 0 l 1
 1171 0 l 1
 515 725 l 1
 365 618 l 1
 365 0 l 1
 174 0 l 1
 174 1469 l 1
EndSplineSet
EndChar

StartChar: L
Encoding: 76 76 44
Width: 1220
GlyphClass: 2
Flags: HW
LayerCount: 2
Fore
SplineSet
174 1469 m 1
 365 1469 l 1
 365 161 l 1
 1126 161 l 1
 1126 0 l 1
 174 0 l 1
 174 1469 l 1
EndSplineSet
EndChar

StartChar: M
Encoding: 77 77 45
Width: 2044
GlyphClass: 2
Flags: HW
LayerCount: 2
Fore
SplineSet
343 1287 m 1
 349.453125 1146.33007812 356 989.1796875 356 844 c 2
 356 0 l 1
 174 0 l 1
 174 1469 l 1
 462 1469 l 1
 1022 200 l 1
 1587 1469 l 1
 1875 1469 l 1
 1875 0 l 1
 1684 0 l 1
 1684 853 l 2
 1684 992.057617188 1691.41699219 1147.82519531 1694 1286 c 1
 1687 1286 l 1
 1092 0 l 1
 942 0 l 1
 349 1287 l 1
 343 1287 l 1
EndSplineSet
EndChar

StartChar: N
Encoding: 78 78 46
Width: 1686
GlyphClass: 2
Flags: HW
LayerCount: 2
Fore
SplineSet
343 1290 m 1
 348.83203125 1129.61914062 356 955.248046875 356 789 c 2
 356 0 l 1
 174 0 l 1
 174 1469 l 1
 415 1469 l 1
 1266 303 l 1
 1344 190 l 1
 1341.1015625 346.541015625 1334 515.423828125 1334 675 c 2
 1334 1469 l 1
 1517 1469 l 1
 1517 0 l 1
 1275 0 l 1
 422 1170 l 1
 343 1290 l 1
EndSplineSet
EndChar

StartChar: O
Encoding: 79 79 47
Width: 1736
GlyphClass: 2
Flags: W
HStem: -20 163<465.871 1256.25> 1326 164<474.258 1247.71>
VStem: 124 198<296.317 1174.76> 1402 198<296.326 1167.92>
LayerCount: 2
Fore
SplineSet
860 1490 m 0
 1109.51660156 1490 1324.96289062 1479.21679688 1450 1361 c 0
 1582.6640625 1235.57226562 1600 999.112304688 1600 731 c 256
 1600 462.876953125 1584.28027344 229.514648438 1450 105 c 0
 1324.98925781 -10.9189453125 1108.18554688 -20 860 -20 c 0
 611.6953125 -20 398.556640625 -11.4248046875 273 105 c 0
 140.284179688 228.063476562 124 465.106445312 124 731 c 256
 124 999.349609375 139.685546875 1234.95703125 273 1361 c 0
 396.735351562 1477.98632812 612.645507812 1490 860 1490 c 0
860 143 m 0
 1051.26953125 143 1232.98730469 135.686523438 1321 232.5 c 0
 1374.40332031 291.244140625 1391.09082031 383.444335938 1397 497.5 c 0
 1400.33300781 561.833007812 1402 639.666992188 1402 731 c 0
 1402 885.198242188 1404.22460938 1017.17675781 1374 1128 c 0
 1336.87011719 1264.14453125 1241.05175781 1308.96875 1076.5 1320 c 0
 1016.83300781 1324 944.666992188 1326 860 1326 c 0
 668.432617188 1326 489.237304688 1331.05078125 402.5 1233 c 0
 349.618164062 1173.22070312 332.888671875 1079.32910156 327 964.5 c 0
 323.666992188 899.5 322 821.666992188 322 731 c 256
 322 577.392578125 319.586914062 445.82421875 350 336 c 0
 387.302734375 201.294921875 481.462890625 158.694335938 645.5 148.5 c 0
 704.5 144.833007812 776 143 860 143 c 0
EndSplineSet
EndChar

StartChar: P
Encoding: 80 80 48
Width: 1421
GlyphClass: 2
Flags: W
HStem: 0 21G<174 365> 574 160<365 1008.82> 1312 157<365 1004.11>
VStem: 174 191<0 574 734 1312> 1105 195<822.755 1216.08>
LayerCount: 2
Fore
SplineSet
174 1469 m 1
 735 1469 l 2
 991.354492188 1469 1186.79296875 1436.859375 1264 1261 c 0
 1288 1206.33300781 1300 1135.66699219 1300 1049 c 0
 1300 791.1015625 1216.96679688 647.225585938 1010.5 599 c 0
 915.1796875 576.735351562 804.090820312 574 684 574 c 2
 365 574 l 1
 365 0 l 1
 174 0 l 1
 174 1469 l 1
649 734 m 2
 815.739257812 734 988.0078125 723.010742188 1058.5 820.5 c 0
 1093.67480469 869.146484375 1105 937.431640625 1105 1026 c 0
 1105 1214.78320312 1033.88183594 1296.05859375 861 1307 c 0
 808.333007812 1310.33300781 748 1312 680 1312 c 2
 365 1312 l 1
 365 734 l 1
 649 734 l 2
EndSplineSet
EndChar

StartChar: Q
Encoding: 81 81 49
Width: 1735
GlyphClass: 2
Flags: HW
LayerCount: 2
Fore
SplineSet
859 1490 m 0
 1108.51660156 1490 1323.96289062 1479.21679688 1449 1361 c 128
 1581.6640625 1235.57226562 1599 999.112304688 1599 731 c 0
 1599 426.963867188 1576.50390625 172.590820312 1388.5 62 c 128
 1303.24414062 11.849609375 1194.37597656 -6.2412109375 1063 -15 c 1
 1163.66601562 -89.6875 1311.39550781 -131.6875 1442 -176 c 1
 1350 -322 l 1
 1184.58984375 -271.94140625 1021.09765625 -188.583007812 889.5 -102.5 c 128
 845.166992188 -73.5 808.333007812 -46 779 -20 c 1
 552.0859375 -16.482421875 365.84765625 2.8779296875 257 119.5 c 128
 138.099609375 246.893554688 123 475.366210938 123 731 c 0
 123 999.349609375 138.685546875 1234.95703125 272 1361 c 128
 395.735351562 1477.98632812 611.645507812 1490 859 1490 c 0
859 143 m 0
 1050.26953125 143 1231.98730469 135.686523438 1320 232.5 c 128
 1373.40332031 291.244140625 1390.09082031 383.444335938 1396 497.5 c 128
 1399.33300781 561.833007812 1401 639.666992188 1401 731 c 0
 1401 885.198242188 1403.22460938 1017.17675781 1373 1128 c 128
 1335.87011719 1264.14453125 1240.05175781 1308.96875 1075.5 1320 c 128
 1015.83300781 1324 943.666992188 1326 859 1326 c 0
 667.432617188 1326 488.237304688 1331.05078125 401.5 1233 c 128
 348.618164062 1173.22070312 331.888671875 1079.32910156 326 964.5 c 128
 322.666992188 899.5 321 821.666992188 321 731 c 256
 321 577.392578125 318.586914062 445.82421875 349 336 c 128
 386.302734375 201.294921875 480.462890625 158.694335938 644.5 148.5 c 128
 703.5 144.833007812 775 143 859 143 c 0
EndSplineSet
EndChar

StartChar: R
Encoding: 82 82 50
Width: 1453
GlyphClass: 2
Flags: HW
LayerCount: 2
Fore
SplineSet
1158 0 m 1
 1059.82324219 196.354492188 945.323242188 412.623046875 838 598 c 1
 365 598 l 1
 365 0 l 1
 174 0 l 1
 174 1469 l 1
 635 1469 l 2
 1011.05957031 1469 1312 1426.65234375 1312 1052 c 0
 1312 807.631835938 1217.09960938 690.028320312 1028 636 c 1
 1045 605 l 130
 1151.74804688 410.341796875 1270.14941406 194.611328125 1379 0 c 1
 1158 0 l 1
681 758 m 2
 865.041015625 758 1018.31835938 756.764648438 1085 874.5 c 128
 1106.33300781 912.166992188 1117 966 1117 1036 c 0
 1117 1162.45605469 1087.49121094 1235.0703125 1002.5 1273 c 128
 962.166992188 1291 909.166992188 1301.83300781 843.5 1305.5 c 128
 777.833007812 1309.16699219 697.333007812 1311 602 1311 c 2
 365 1311 l 1
 365 758 l 1
 681 758 l 2
EndSplineSet
EndChar

StartChar: S
Encoding: 83 83 51
Width: 1367
GlyphClass: 2
Flags: HW
LayerCount: 2
Fore
SplineSet
200 277 m 1
 301.840820312 188.921875 442.004882812 142 633 142 c 0
 873.209960938 142 1072 152.951171875 1072 389 c 0
 1072 548.860351562 973.157226562 588.7109375 844 621 c 1
 451 715 l 2
 252.390625 762.940429688 131 849.482421875 131 1093 c 0
 131 1410.67089844 379.857421875 1490 697 1490 c 0
 936.833984375 1490 1118.09960938 1434.90039062 1235 1318 c 1
 1132 1191 l 1
 1035.77636719 1273.47753906 907.844726562 1326 725 1326 c 0
 501.111328125 1326 314 1305.5 314 1087 c 0
 314 949.517578125 384.505859375 912.579101562 499 886 c 2
 892 792 l 2
 1059.76757812 750.849609375 1198.43652344 692.1953125 1240 534.5 c 128
 1251.33300781 491.5 1257 442 1257 386 c 0
 1257 46.146484375 980.646484375 -20 642 -20 c 0
 445.486328125 -20 286.161132812 10.751953125 174 88.5 c 128
 144.666992188 108.833007812 119 129.333007812 97 150 c 1
 200 277 l 1
EndSplineSet
EndChar

StartChar: T
Encoding: 84 84 52
Width: 1387
GlyphClass: 2
Flags: HW
LayerCount: 2
Fore
SplineSet
598 1311 m 1
 73 1311 l 1
 73 1469 l 1
 1315 1469 l 1
 1315 1311 l 1
 789 1311 l 1
 789 0 l 1
 598 0 l 1
 598 1311 l 1
EndSplineSet
EndChar

StartChar: U
Encoding: 85 85 53
Width: 1595
GlyphClass: 2
Flags: HW
LayerCount: 2
Fore
SplineSet
796 -20 m 256
 483.010742188 -20 260.643554688 52.8642578125 187 283 c 128
 165.666992188 349.666992188 155 427 155 515 c 2
 155 1469 l 1
 346 1469 l 1
 346 467 l 2
 346 284.818359375 414.91015625 203.772460938 566 166 c 128
 624.666992188 151.333007812 701.333007812 144 796 144 c 0
 961.912109375 144 1090.92578125 159.678710938 1170 229.5 c 128
 1229.79980469 282.301757812 1246 358.55859375 1246 467 c 2
 1246 1469 l 1
 1437 1469 l 1
 1437 515 l 2
 1437 229.393554688 1328.61035156 76.9169921875 1101 14 c 128
 1019 -8.6669921875 917.333007812 -20 796 -20 c 256
EndSplineSet
EndChar

StartChar: V
Encoding: 86 86 54
Width: 1511
GlyphClass: 2
Flags: HW
LayerCount: 2
Fore
SplineSet
57 1469 m 1
 263 1469 l 1
 426.974609375 1040.64160156 592.729492188 614.063476562 755 184 c 1
 1249 1469 l 1
 1456 1469 l 1
 859 0 l 1
 653 0 l 1
 57 1469 l 1
EndSplineSet
EndChar

StartChar: W
Encoding: 87 87 55
Width: 2191
GlyphClass: 2
Flags: HW
LayerCount: 2
Fore
SplineSet
1098 1268 m 1
 982.233398438 841.638671875 849.591796875 417.331054688 722 0 c 1
 512 0 l 1
 59 1469 l 1
 256 1469 l 1
 541 531 l 1
 571.95703125 425.229492188 596.063476562 308.211914062 621 196 c 1
 658.779296875 340.822265625 694.142578125 497.688476562 738 637 c 1
 989 1469 l 1
 1206 1469 l 1
 1459 637 l 2
 1502.06835938 495.831054688 1551.50878906 333.005859375 1587 194 c 1
 1680.23339844 630.092773438 1816.55175781 1053.11621094 1935 1469 c 1
 2133 1469 l 1
 1693 0 l 1
 1483 0 l 1
 1352.59472656 417.828125 1210.9921875 835.806640625 1098 1268 c 1
EndSplineSet
EndChar

StartChar: X
Encoding: 88 88 56
Width: 1519
GlyphClass: 2
Flags: HW
LayerCount: 2
Fore
SplineSet
634 770 m 1
 114 1469 l 1
 340 1469 l 1
 764 898 l 1
 1193 1469 l 1
 1411 1469 l 1
 891 775 l 1
 1465 0 l 1
 1230 0 l 1
 760 652 l 1
 285 0 l 1
 63 0 l 1
 634 770 l 1
EndSplineSet
EndChar

StartChar: Y
Encoding: 89 89 57
Width: 1450
GlyphClass: 2
Flags: HW
LayerCount: 2
Fore
SplineSet
630 581 m 1
 53 1469 l 1
 278 1469 l 1
 732 729 l 1
 1176 1469 l 1
 1399 1469 l 1
 821 581 l 1
 821 0 l 1
 630 0 l 1
 630 581 l 1
EndSplineSet
EndChar

StartChar: Z
Encoding: 90 90 58
Width: 1401
GlyphClass: 2
Flags: HW
LayerCount: 2
Fore
SplineSet
115 149 m 1
 1035 1311 l 1
 143 1311 l 1
 143 1469 l 1
 1278 1469 l 1
 1278 1324 l 1
 357 161 l 1
 1302 161 l 1
 1302 0 l 1
 115 0 l 1
 115 149 l 1
EndSplineSet
EndChar

StartChar: bracketleft
Encoding: 91 91 59
Width: 691
GlyphClass: 2
Flags: HW
LayerCount: 2
Fore
SplineSet
170 1469 m 1
 614 1469 l 1
 614 1315 l 1
 350 1315 l 1
 350 -64 l 1
 614 -64 l 1
 614 -219 l 1
 170 -219 l 1
 170 1469 l 1
EndSplineSet
EndChar

StartChar: backslash
Encoding: 92 92 60
Width: 898
GlyphClass: 2
Flags: HW
LayerCount: 2
Fore
SplineSet
60 1474 m 1
 236 1474 l 1
 853 -5 l 1
 677 -5 l 1
 60 1474 l 1
EndSplineSet
EndChar

StartChar: bracketright
Encoding: 93 93 61
Width: 691
GlyphClass: 2
Flags: HW
LayerCount: 2
Fore
SplineSet
78 -64 m 1
 341 -64 l 1
 341 1315 l 1
 78 1315 l 1
 78 1469 l 1
 522 1469 l 1
 522 -219 l 1
 78 -219 l 1
 78 -64 l 1
EndSplineSet
EndChar

StartChar: asciicircum
Encoding: 94 94 62
Width: 1153
GlyphClass: 2
Flags: HW
LayerCount: 2
Fore
SplineSet
520 1476 m 1
 643 1476 l 1
 1078 583 l 1
 916 583 l 1
 581 1295 l 1
 240 583 l 1
 78 583 l 1
 520 1476 l 1
EndSplineSet
EndChar

StartChar: underscore
Encoding: 95 95 63
Width: 1280
GlyphClass: 2
Flags: HW
LayerCount: 2
Fore
SplineSet
184 -174 m 1
 1091 -174 l 1
 1091 -302 l 1
 184 -302 l 1
 184 -174 l 1
EndSplineSet
EndChar

StartChar: grave
Encoding: 96 96 64
Width: 643
GlyphClass: 2
Flags: HW
LayerCount: 2
Fore
SplineSet
401 1228 m 1
 317.690429688 1299.40820312 237.857421875 1390.79003906 167 1478 c 128
 141 1510 117 1541.66699219 95 1573 c 1
 311 1573 l 1
 378.380859375 1458.74609375 447.850585938 1330.60058594 527 1228 c 1
 401 1228 l 1
EndSplineSet
EndChar

StartChar: a
Encoding: 97 97 65
Width: 1210
GlyphClass: 2
Flags: HW
HStem: -20 147<332.43 732.277> 0 21G<914.159 1063> 951 148<367.465 813.011>
VStem: 113 174<175.006 398.229> 883 180<269.351 524 659 878.484> 917 146<0 100.925>
LayerCount: 2
Fore
SplineSet
616 1099 m 0
 921.900274361 1099 1063 996.092376167 1063 691 c 2xb8
 1063 0 l 1
 917 0 l 1x74
 892 176 l 1
 842.315429688 49.02734375 702.59765625 -20 526 -20 c 0xb4
 266.084960938 -20 113 56.751953125 113 314 c 0
 113 389.9765625 117.348632812 457.578125 139 509 c 1
 883 659 l 1
 883 690 l 2
 883 885.819623233 817.621201423 951 622 951 c 0
 422.650796895 951 301.771549984 920.996038621 195 868 c 5
 141 992 l 1
 250.66015625 1066.26352354 394.537109375 1099 616 1099 c 0
293 395 m 1
 289.061881662 365.456899794 287 334.606262479 287 301 c 0
 287 152.244140625 374.426757812 127 524 127 c 0
 693.71875 127 812.178710938 192.306640625 860.5 311.5 c 0
 875.5 348.5 883 388.333007812 883 431 c 2
 883 524 l 1
 293 395 l 1
EndSplineSet
EndChar

StartChar: b
Encoding: 98 98 66
Width: 1346
GlyphClass: 2
Flags: HW
LayerCount: 2
Fore
SplineSet
690 128 m 0
 993.022372039 128 1038 238.925810486 1038 541 c 0
 1038 843.439023439 987.683292948 951 683 951 c 0
 405.389577072 951 354 817.558024684 354 539 c 0
 354 251.237514056 405.638584747 128 690 128 c 0
1223 545 m 0
 1223 152.448724788 1125.36613777 -20 730 -20 c 0
 544.631835938 -20 415.938476562 29.0419921875 352 152 c 1
 345 152 l 1
 328 0 l 1
 174 0 l 1
 174 1530 l 1
 354 1530 l 1
 354 1090 l 2
 354 1035.79492188 351.686523438 971.608398438 348 920 c 1
 395.606445312 1035.04785156 522.20703125 1099 690 1099 c 0
 1097.45220144 1099 1223 953.193482159 1223 545 c 0
EndSplineSet
EndChar

StartChar: c
Encoding: 99 99 67
Width: 1169
GlyphClass: 2
Flags: W
HStem: -20 148<407.412 855.909> 951 148<409.457 855.36>
VStem: 111 184<243.927 834.596>
LayerCount: 2
Fore
SplineSet
111 542 m 0
 111 939.90709379 233.187196716 1099 631 1099 c 0
 841.003767725 1099 963.908869376 1047.14174213 1058 938 c 1
 970 823 l 1
 886.028320312 906.971679688 795.993164062 951 641 951 c 0
 336.047063254 951 295 844.651311214 295 541 c 0
 295 242.92321288 334.164004768 128 634 128 c 0
 796.875 128 889.272460938 175.272460938 971 257 c 1
 1058 141 l 1
 965.545898438 33.7529296875 839.298828125 -20 631 -20 c 0
 230.003429728 -20 111 139.489229651 111 542 c 0
EndSplineSet
EndChar

StartChar: d
Encoding: 100 100 68
Width: 1328
GlyphClass: 2
Flags: HW
LayerCount: 2
Fore
SplineSet
650 951 m 0
 346.620655725 951 295 844.857305087 295 541 c 0
 295 240.492421059 339.793213108 128 643 128 c 0
 925.264165757 128 979 251.691884101 979 539 c 0
 979 816.269956454 928.35992134 951 650 951 c 0
110 545 m 0
 110 951.958093521 234.503380423 1099 643 1099 c 0
 810.484375 1099 937.44140625 1034.93359375 985 920 c 1
 981.322265625 971.489257812 979 1036.02441406 979 1090 c 2
 979 1530 l 1
 1159 1530 l 1
 1159 0 l 1
 1005 0 l 1
 988 152 l 1
 981 152 l 1
 917.059570312 29.037109375 788.377929688 -20 603 -20 c 0
 208.274996862 -20 110 150.228078848 110 545 c 0
EndSplineSet
EndChar

StartChar: e
Encoding: 101 101 69
Width: 1259
GlyphClass: 2
Flags: W
HStem: -20 148<407.24 871.802> 519 134<297 958> 951 148<393.789 871.211>
VStem: 111 184<245.481 519 653 847.643> 958 177<211.277 360.1 653 867.262>
LayerCount: 2
Fore
SplineSet
958 653 m 1
 958 898.600166204 890.795519916 951 641 951 c 0
 369.171622024 951 315.473981663 897.762575907 297 653 c 1
 958 653 l 1
111 529 m 0
 111 949.750080856 219.098697175 1099 641 1099 c 0
 997.889562438 1099 1135 974.533703722 1135 621 c 2
 1135 519 l 1
 295 519 l 1
 305.584907401 220.606134507 334.191738098 128 666 128 c 4
 832.988045406 128 955.5 167.809761894 955.5 360.099609375 c 1
 1126.5 360.099609375 l 1
 1126.5 75.7626558254 910.407804495 -20 663 -20 c 4
 265.110072527 -20 111 121.399778892 111 529 c 0
EndSplineSet
EndChar

StartChar: f
Encoding: 102 102 70
Width: 916
GlyphClass: 2
Flags: W
HStem: 0 21G<280 460> 938 142<460 788> 938 101<75 144.973> 1392 148<505.047 828.403>
VStem: 280 180<0 938 1081 1343.56>
LayerCount: 2
Fore
SplineSet
280 1147 m 2xb8
 280 1424.11729038 380.663517155 1540 652 1540 c 0
 728.0078125 1540 794.556640625 1528.65429688 856 1515 c 1
 824 1373 l 1
 763.462890625 1383.30371094 694.716796875 1392 625 1392 c 0
 492.591796875 1392 460 1312.61914062 460 1179 c 2
 460 1080 l 1
 788 1080 l 1
 788 938 l 1
 460 938 l 1xd8
 460 0 l 1
 280 0 l 1
 280 938 l 1
 75 938 l 1
 75 1039 l 1
 280 1081 l 1
 280 1147 l 2xb8
EndSplineSet
EndChar

StartChar: g
Encoding: 103 103 71
Width: 1195
GlyphClass: 2
Flags: HWO
LayerCount: 2
Fore
SplineSet
527 1118 m 0
 590.336914062 1118 658.912109375 1111.77246094 710 1099 c 1
 1073 1099 l 1
 1073 972 l 1
 876 972 l 1
 914.559570312 921.045898438 942 836.7734375 942 745 c 0
 942 483.576171875 791.005859375 398 527 398 c 0
 480.958984375 398 427.016601562 396.9921875 397 412 c 1
 376.897460938 376.8203125 363 327.0078125 363 266 c 0
 363 192.09765625 421.306640625 180.190429688 485 170 c 2
 1054 80 l 1
 1069.64355469 24.1298828125 1079 -41.8359375 1079 -115 c 0
 1079 -435.356445312 840.20703125 -492 516 -492 c 0
 262.010742188 -492 81 -432.084960938 81 -186 c 0
 81 -21.134765625 144.700195312 86.810546875 289 102 c 1
 241.397460938 119.538085938 203 174.133789062 203 238 c 0
 203 338.471679688 234.125 393.299804688 286 450 c 1
 186.186523438 493.508789062 116 597.521484375 116 739 c 0
 116 1013.5390625 250.940429688 1118 527 1118 c 0
516 -354 m 0
 731.394120414 -354 907 -337.448104196 907 -131 c 0
 907 -95.3642578125 904 -65.7841796875 904 -36 c 1
 417 34 l 1
 300.002929688 34 253 -57.83984375 253 -180 c 0
 253 -329.213867188 359.734375 -354 516 -354 c 0
524 990 m 0
 346.540537103 990 278 925.129650586 278 748 c 0
 278 578.266601562 353.838867188 521 526 521 c 0
 706.226690696 521 788 572.634268038 788 751 c 0
 788 936.536948069 710.852776382 990 524 990 c 0
EndSplineSet
EndChar

StartChar: h
Encoding: 104 104 72
Width: 1324
GlyphClass: 2
Flags: HW
LayerCount: 2
Fore
SplineSet
693 951 m 0
 415.886731961 951 354 818.914763604 354 569 c 2
 354 0 l 1
 174 0 l 1
 174 1532 l 1
 354 1532 l 1
 354 1059 l 1
 350 902 l 1
 419.041608815 1033.09960938 524.800519625 1099 717 1099 c 0
 1058.7088056 1099 1179 971.084796277 1179 610 c 2
 1179 0 l 1
 999 0 l 1
 999 603 l 2
 999 894.746730257 909.166613296 951 693 951 c 0
EndSplineSet
EndChar

StartChar: i
Encoding: 105 105 73
Width: 519
GlyphClass: 2
Flags: HW
LayerCount: 2
Fore
SplineSet
172 1080 m 1
 352 1080 l 1
 352 0 l 1
 172 0 l 1
 172 1080 l 1
157 1395 m 0
 157 1459.83300781 195.801757812 1496 264 1496 c 256
 332.217773438 1496 371 1459.85058594 371 1395 c 0
 371 1324.33300781 335.333007812 1289 264 1289 c 256
 192.666992188 1289 157 1324.33300781 157 1395 c 0
EndSplineSet
EndChar

StartChar: j
Encoding: 106 106 74
Width: 586
GlyphClass: 2
Flags: HW
LayerCount: 2
Fore
SplineSet
17 -159 m 1
 149.505859375 -159 237 -101.248046875 237 33 c 2
 237 1080 l 1
 417 1080 l 1
 417 32 l 2
 417 -174.30078125 303.76171875 -306 101 -306 c 0
 85.818359375 -306 71.1826171875 -305.2890625 57 -304 c 1
 17 -159 l 1
221 1395 m 0
 221 1459.83300781 259.801757812 1496 328 1496 c 256
 396.217773438 1496 435 1459.85058594 435 1395 c 0
 435 1324.33300781 399.333007812 1289 328 1289 c 256
 256.666992188 1289 221 1324.33300781 221 1395 c 0
EndSplineSet
EndChar

StartChar: k
Encoding: 107 107 75
Width: 1208
GlyphClass: 2
Flags: HW
LayerCount: 2
Fore
SplineSet
174 1532 m 1
 350 1532 l 1
 350 564 l 1
 859 1080 l 1
 1093 1080 l 1
 1093 1076 l 1
 588 608 l 1
 1154 4 l 1
 1154 0 l 1
 924 0 l 1
 434 524 l 1
 354 449 l 1
 354 0 l 1
 174 0 l 1
 174 1532 l 1
EndSplineSet
EndChar

StartChar: l
Encoding: 108 108 76
Width: 523
GlyphClass: 2
Flags: HW
LayerCount: 2
Fore
SplineSet
174 1532 m 1
 354 1532 l 1
 354 0 l 1
 174 0 l 1
 174 1532 l 1
EndSplineSet
EndChar

StartChar: m
Encoding: 109 109 77
Width: 2034
GlyphClass: 2
Flags: HW
HStem: 0 21G<159 339 936 1116 1704 1884> 951 148<485.364 878.352 1219.64 1645.71> 1060 20G<159 314.882>
VStem: 159 180<0 805.578> 159 154<927.68 1080> 936 180<0 857.398> 1704 180<0 892.532>
LayerCount: 2
Fore
SplineSet
1064 894 m 1
 1137.06494499 1047.43651859 1262.00760909 1099 1488 1099 c 0xce
 1736.61523438 1099 1884 1016.76757812 1884 771 c 2
 1884 0 l 1
 1704 0 l 1
 1704 718 l 2
 1704 896.861768922 1638.39510302 951 1457 951 c 0
 1242.7601078 951 1116 898.846281765 1116 690 c 2
 1116 0 l 1
 936 0 l 1
 936 674 l 2
 936 867.471645187 902.040172995 951 707 951 c 0
 454.075195312 951 339 848.834960938 339 597 c 2
 339 0 l 1
 159 0 l 1xd6
 159 1080 l 1
 313 1080 l 1xae
 329 910 l 1
 400.854492188 1046.52246094 533.639648438 1099 740 1099 c 0
 924.9296875 1099 1027.78515625 1041.64453125 1064 894 c 1
EndSplineSet
EndChar

StartChar: n
Encoding: 110 110 78
Width: 1311
GlyphClass: 2
Flags: W
HStem: 0 21G<159 339 984 1164> 951 148<478.631 884.31> 1060 20G<159 315.024>
VStem: 159 180<0 834.894> 159 154<938.327 1080> 984 180<0 850.357>
LayerCount: 2
Fore
SplineSet
678 951 m 0xcc
 400.886731961 951 339 832.74567841 339 609 c 2
 339 0 l 1
 159 0 l 1xd4
 159 1080 l 1
 313 1080 l 1xac
 330 912 l 1
 404.39453125 1038.90820312 514.583984375 1099 712 1099 c 0
 1025.66316046 1099 1164 971.084796277 1164 610 c 2
 1164 0 l 1
 984 0 l 1
 984 613 l 2
 984 896.363203526 894.166613296 951 678 951 c 0xcc
EndSplineSet
EndChar

StartChar: o
Encoding: 111 111 79
Width: 1336
GlyphClass: 2
Flags: W
HStem: -20 148<411.738 912.276> 951 148<408.247 912.246>
VStem: 112 184<244.656 836.697> 1028 184<244.346 836.364>
LayerCount: 2
Fore
SplineSet
296 541 m 260
 296 221.908692399 336.829122113 128 662 128 c 260
 986.145315353 128 1028 219.287413359 1028 541 c 260
 1028 859.795537005 987.211674569 951 662 951 c 260
 337.859986731 951 296 862.539037382 296 541 c 260
112 541 m 260
 112 962.015647432 242.789083707 1099 662 1099 c 260
 1080.01718915 1099 1212 963.100335148 1212 541 c 260
 1212 119.884718885 1081.30875526 -20 662 -20 c 260
 243.859848572 -20 112 118.807684701 112 541 c 260
EndSplineSet
EndChar

StartChar: p
Encoding: 112 112 80
Width: 1332
GlyphClass: 2
Flags: HW
LayerCount: 2
Fore
SplineSet
668 128 m 0
 971.379344275 128 1023 234.142694913 1023 538 c 0
 1023 838.507578941 978.206786892 951 675 951 c 0
 392.735834243 951 339 827.308115899 339 540 c 0
 339 262.730043546 389.64007866 128 668 128 c 0
1208 534 m 0
 1208 127.041906479 1083.49661958 -20 675 -20 c 0
 513.208984375 -20 382.328125 32.1220703125 333 139 c 1
 336.495117188 93.5576171875 339 36.88671875 339 -11 c 2
 339 -451 l 1
 159 -451 l 1
 159 1080 l 1
 313 1080 l 1
 330 907 l 1
 337 907 l 1
 398.7890625 1040.08398438 522.620117188 1099 715 1099 c 0
 1109.66730027 1099 1208 928.544157205 1208 534 c 0
EndSplineSet
EndChar

StartChar: q
Encoding: 113 113 81
Width: 1328
GlyphClass: 2
Flags: HW
LayerCount: 2
Fore
SplineSet
646 951 m 0
 342.977627961 951 298 840.074189514 298 538 c 0
 298 235.560976561 348.316707052 128 653 128 c 0
 930.610422928 128 982 261.441975316 982 540 c 0
 982 827.762485944 930.361415253 951 646 951 c 0
113 534 m 0
 113 926.25407618 210.766605149 1099 606 1099 c 0
 798.3671875 1099 922.213867188 1040.07714844 984 907 c 1
 991 907 l 1
 1008 1080 l 1
 1162 1080 l 1
 1162 -451 l 1
 982 -451 l 1
 982 -11 l 2
 982 36.884765625 984.51953125 93.759765625 988 139 c 1
 938.748046875 32.287109375 807.431640625 -20 646 -20 c 0
 238.547798558 -20 113 125.806517841 113 534 c 0
EndSplineSet
EndChar

StartChar: r
Encoding: 114 114 82
Width: 997
GlyphClass: 2
Flags: HW
LayerCount: 2
Fore
SplineSet
330 912 m 1
 391.944335938 1031.75878906 475.131835938 1099 652 1099 c 0
 776.259765625 1099 854.885742188 1066.86132812 910 996 c 1
 826 892 l 1
 779.869140625 940.844726562 713.229492188 951 618 951 c 0
 372.88671875 951 339 774.909179688 339 529 c 2
 339 0 l 1
 159 0 l 1
 159 1080 l 1
 313 1080 l 1
 330 912 l 1
EndSplineSet
EndChar

StartChar: s
Encoding: 115 115 83
Width: 1137
GlyphClass: 2
Flags: HW
LayerCount: 2
Fore
SplineSet
132 807 m 0
 132 1051.95898438 328.209960938 1099 579 1099 c 0
 777.858398438 1099 927.975585938 1047.72363281 1019 939 c 1
 931 832 l 1
 852.93359375 901.392578125 756.848632812 951 608 951 c 0
 468.194335938 951 308 953.083007812 308 820 c 0
 308 718.420898438 347.4921875 686.876953125 431 666 c 2
 705 598 l 2
 871.229492188 556.442382812 1013 508.81640625 1013 304 c 0
 1013 37.2724609375 815.806640625 -20 550 -20 c 0
 350.387695312 -20 205.97265625 28.1083984375 109 140 c 1
 196 250 l 1
 279.029296875 172.505859375 387.004882812 128 549 128 c 0
 701.607421875 128 836 136.5859375 836 285 c 0
 836 385.102539062 785.670898438 407.815429688 705 430 c 2
 352 525 l 1
 211.352539062 561.295898438 132 632.4140625 132 807 c 0
EndSplineSet
EndChar

StartChar: t
Encoding: 116 116 84
Width: 1013
GlyphClass: 2
Flags: W
HStem: -20 140<481.134 710.441> 938 142<437 851> 938 105<77 157.192>
VStem: 257 180<167.929 938> 309 128<1327.41 1421> 751 156<162.315 325>
LayerCount: 2
Fore
SplineSet
598 120 m 0xd4
 671.357385706 120 749.059461806 139.764825757 751 325 c 5
 907 325 l 5
 907.869134777 46.6748664953 746.90934927 -20 598 -20 c 0
 352.230746973 -20 257 118.109375 257 370 c 2
 257 938 l 1
 77 938 l 1
 77 1043 l 1xb4
 256 1075 l 1
 309 1421 l 1
 437 1421 l 1
 437 1080 l 1xcc
 851 1080 l 1
 851 938 l 1
 437 938 l 1
 437 388 l 2
 437 235.321403556 440.699881213 120 598 120 c 0xd4
EndSplineSet
EndChar

StartChar: u
Encoding: 117 117 85
Width: 1303
GlyphClass: 2
Flags: W
HStem: -20 148<430.073 828.798> 0 21G<989.636 1144.04> 1060 20G<140.041 320.041 964.041 1144.04>
VStem: 140.041 180<246.586 1080> 964.041 180<260.353 1080> 992.041 152<0 119.215>
LayerCount: 2
Fore
SplineSet
578.041015625 -20 m 4xb4
 233.929667334 -20 140.041015625 181.326113675 140.041015625 564 c 2
 140.041015625 1080 l 1
 320.041015625 1080 l 1
 320.041015625 609 l 2
 320.041015625 321.391228377 305.981855959 128 621.041015625 128 c 0
 923.191947705 128 964.041015625 264.991136053 964.041015625 552 c 2
 964.041015625 1080 l 1
 1144.04101562 1080 l 1xb8
 1144.04101562 0 l 1
 992.041015625 0 l 1x74
 973.041015625 158 l 1
 965.041015625 158 l 1
 903.708691646 24.0341796875 764.95649618 -20 578.041015625 -20 c 4xb4
EndSplineSet
EndChar

StartChar: v
Encoding: 118 118 86
Width: 1257
GlyphClass: 2
Flags: HW
LayerCount: 2
Fore
SplineSet
64 1080 m 1
 252 1080 l 1
 378.694335938 758.02734375 506.413085938 437.079101562 626 108 c 1
 740.052734375 439.280273438 865.717773438 758.94921875 990 1080 c 1
 1177 1080 l 1
 733 0 l 1
 509 0 l 1
 64 1080 l 1
EndSplineSet
EndChar

StartChar: w
Encoding: 119 119 87
Width: 1848
GlyphClass: 2
Flags: HW
LayerCount: 2
Fore
SplineSet
72 1080 m 1
 262 1080 l 1
 535 118 l 1
 810 1080 l 1
 1025 1080 l 1
 1309 118 l 1
 1574 1080 l 1
 1760 1080 l 1
 1414 0 l 1
 1190 0 l 1
 912 918 l 1
 827.099609375 605.56640625 731.115234375 304.217773438 638 0 c 1
 416 0 l 1
 72 1080 l 1
EndSplineSet
EndChar

StartChar: x
Encoding: 120 120 88
Width: 1228
GlyphClass: 2
Flags: W
HStem: 0 21G<68 304.751 927.249 1163> 1060 20G<106 338.6 893.4 1126>
LayerCount: 2
Fore
SplineSet
506 561 m 1
 106 1080 l 1
 324 1080 l 1
 616 680 l 1
 908 1080 l 1
 1126 1080 l 1
 726 561 l 1
 1163 0 l 1
 942 0 l 1
 616 442 l 1
 290 0 l 1
 68 0 l 1
 506 561 l 1
EndSplineSet
EndChar

StartChar: y
Encoding: 121 121 89
Width: 1242
GlyphClass: 2
Flags: HW
LayerCount: 2
Fore
SplineSet
173 -287 m 1
 205.600585938 -297.8671875 240.53515625 -309 280 -309 c 0
 417.298828125 -309 465.30078125 -226.137695312 500 -120 c 2
 535 -12 l 1
 61 1080 l 1
 254 1080 l 1
 501 479 l 1
 543.192382812 370.50390625 586.67578125 264.043945312 629 154 c 1
 664.272460938 261.58203125 701.387695312 377.274414062 742 480 c 2
 973 1080 l 1
 1162 1080 l 1
 683 -140 l 2
 617.942382812 -305.791992188 535.134765625 -459 310 -459 c 2
 297 -459 l 1
 227.439111711 -456.641596278 146.44644853 -456.739494967 119 -419 c 1
 173 -287 l 1
EndSplineSet
EndChar

StartChar: z
Encoding: 122 122 90
Width: 1123
GlyphClass: 2
Flags: HW
LayerCount: 2
Fore
SplineSet
119 131 m 1
 783 939 l 1
 152 939 l 1
 152 1080 l 1
 986 1080 l 1
 986 935 l 1
 332 142 l 1
 1002 142 l 1
 1002 0 l 1
 119 0 l 1
 119 131 l 1
EndSplineSet
EndChar

StartChar: braceleft
Encoding: 123 123 91
Width: 749
GlyphClass: 2
Flags: HW
LayerCount: 2
Fore
SplineSet
674 -219 m 1
 441.821500383 -208.906901926 305 -142.751306957 305 99 c 2
 305 348 l 2
 305 487.407226562 212.4921875 550 75 550 c 1
 75 701 l 1
 252.872655929 701 305 785.129397754 305 963 c 2
 305 1151 l 2
 305 1179.66699219 310.101756082 1204.54918954 315 1227 c 0
 354.125960769 1406.33152041 462.78644078 1465.93743926 674 1469 c 1
 674 1321 l 1
 512.138991967 1321 484 1262.61237933 484 1101 c 0
 484 1032.078125 486 948.272460938 486 881 c 0
 486 731.069335938 393.009765625 650.596679688 266 630 c 1
 266 620 l 1
 431.265625 592.907226562 490 484.493164062 490 291 c 0
 490 244.137695312 487 193.161132812 487 146 c 0
 487 -14.3731252058 519.774831903 -67.851042127 674 -71 c 1
 674 -219 l 1
EndSplineSet
EndChar

StartChar: bar
Encoding: 124 124 92
Width: 502
GlyphClass: 2
Flags: HW
LayerCount: 2
Fore
SplineSet
329 1550 m 1
 329 -499 l 1
 174 -499 l 1
 174 1550 l 1
 329 1550 l 1
EndSplineSet
EndChar

StartChar: braceright
Encoding: 125 125 93
Width: 748
GlyphClass: 2
Flags: HW
LayerCount: 2
Fore
SplineSet
447 944 m 0
 447 777.595703125 511.049804688 701 676 701 c 1
 676 550 l 1
 540.118164062 550 466.588867188 503.06640625 451.5 387 c 128
 447.166992188 353.666992188 445 317 445 277 c 2
 445 67 l 2
 445 -147.280273438 289.095703125 -219 77 -219 c 1
 77 -71 l 1
 170.5703125 -65.49609375 231.993164062 -57.0263671875 253 21 c 128
 261.88671875 54.0068359375 264 96.7890625 264 138 c 2
 264 182 l 2
 264 291.28125 255.375 412.438476562 291 486.5 c 128
 326.34765625 559.985351562 392.592773438 604.393554688 484 620 c 1
 484 630 l 1
 325.6484375 655.072265625 263 761.763671875 263 943 c 0
 263 990.697265625 264 1038.7109375 264 1087 c 0
 264 1204.8515625 257.254882812 1298.15429688 163.5 1314 c 128
 139.833007812 1318 111 1320.33300781 77 1321 c 1
 77 1469 l 1
 139.274414062 1467.67480469 194.782226562 1463.13085938 246 1451 c 1
 391.309570312 1412.078125 450 1280.27929688 450 1097 c 0
 450 1045.46484375 447 992.248046875 447 944 c 0
EndSplineSet
EndChar

StartChar: asciitilde
Encoding: 126 126 94
Width: 1207
GlyphClass: 2
Flags: HW
LayerCount: 2
Fore
SplineSet
823 669 m 0
 886.012695312 669 942.232421875 704.674804688 980 733 c 0
 1004.66699219 751.666992188 1027.66699219 773 1049 797 c 1
 1083 674 l 1
 1048.27539062 615.236328125 1003.21386719 575.94140625 938 544 c 128
 905.333007812 528 867 520 823 520 c 0
 737.80078125 520 661.041015625 556.2734375 593.5 581.5 c 128
 544.555664062 599.780273438 494.046875 620.12890625 445.5 634 c 128
 424.5 640 407 643 393 643 c 0
 328.978515625 643 274.21484375 607.661132812 236 579 c 0
 211.333007812 560.333007812 188.333007812 539 167 515 c 1
 133 638 l 1
 181.778320312 718.671875 264.375 792 393 792 c 0
 476.306640625 792 558.717773438 756.950195312 624 730.5 c 128
 662.666992188 714.833007812 699.166992188 700.666992188 733.5 688 c 128
 767.833007812 675.333007812 797.666992188 669 823 669 c 0
EndSplineSet
EndChar

StartChar: cent
Encoding: 162 162 97
Width: 1099
GlyphClass: 2
Flags: HW
LayerCount: 2
Fore
SplineSet
1036 365 m 1
 964.875 254.361328125 861.336914062 207.735351562 686 200 c 1
 686 -20 l 1
 549 -20 l 1
 549 201 l 1
 308.673828125 214.676757812 175.732421875 301.431640625 130.5 509.5 c 128
 115.5 578.5 108 662 108 760 c 0
 108 1022.25488281 154.319335938 1205.49414062 340.5 1276 c 128
 396.833007812 1297.33300781 466.333007812 1310.33300781 549 1315 c 1
 549 1532 l 1
 686 1532 l 1
 686 1316 l 1
 854.5703125 1307.57128906 977.979492188 1261.52734375 1033 1150 c 1
 924 1051 l 1
 872.326171875 1128.51074219 810.1796875 1165.81542969 686 1169 c 1
 686 348 l 1
 807.911132812 350.973632812 875.134765625 389.260742188 924 467 c 1
 1036 365 l 1
292 760 m 0
 292 578.645507812 302.247070312 425.129882812 424.5 374.5 c 128
 457.5 360.833007812 499 352.333007812 549 349 c 1
 549 1167 l 1
 394.606445312 1154.96972656 325.608398438 1091.64941406 303.5 946.5 c 128
 295.833007812 896.166992188 292 834 292 760 c 0
EndSplineSet
EndChar

StartChar: sterling
Encoding: 163 163 98
Width: 1400
GlyphClass: 2
Flags: HW
LayerCount: 2
Fore
SplineSet
787 1327 m 0
 607.6796875 1327 501 1273.44726562 501 1100 c 2
 501 778 l 1
 1001 778 l 1
 1001 639 l 1
 501 639 l 1
 501 534 l 2
 501 398.432617188 505.606445312 285.348632812 441 219.5 c 128
 423.666992188 201.833007812 400.666992188 183.666992188 372 165 c 1
 1324 165 l 1
 1324 0 l 1
 98 0 l 1
 98 157 l 1
 240.401367188 182.129882812 309.2109375 256.368164062 314 412 c 128
 315.333007812 455.333007812 316 501 316 549 c 2
 316 639 l 1
 100 639 l 1
 100 778 l 1
 316 778 l 1
 316 1125 l 2
 316 1395.0859375 516.546875 1489 787 1489 c 0
 1011.00488281 1489 1185.19042969 1427.80957031 1295 1318 c 1
 1192 1191 l 1
 1107.5234375 1275.4765625 959.456054688 1327 787 1327 c 0
EndSplineSet
EndChar

StartChar: yen
Encoding: 165 165 99
Width: 1392
GlyphClass: 2
Flags: HW
LayerCount: 2
Fore
SplineSet
611 273 m 1
 258 273 l 1
 258 408 l 1
 611 408 l 1
 611 576 l 1
 258 576 l 1
 258 711 l 1
 527 711 l 1
 58 1469 l 1
 258 1469 l 1
 699 733 l 1
 1143 1469 l 1
 1342 1469 l 1
 869 711 l 1
 1140 711 l 1
 1140 576 l 1
 788 576 l 1
 788 408 l 1
 1140 408 l 1
 1140 273 l 1
 788 273 l 1
 788 0 l 1
 611 0 l 1
 611 273 l 1
EndSplineSet
EndChar

StartChar: section
Encoding: 167 167 100
Width: 1150
GlyphClass: 2
Flags: HW
LayerCount: 2
Fore
SplineSet
742 567 m 1
 816.267578125 586.659179688 882 643.775390625 882 735 c 0
 882 815.672851562 825.764648438 865.745117188 756 889 c 2
 434 997 l 1
 350.690429688 984.748046875 284 915.454101562 284 822 c 0
 284 752.094726562 325.728515625 707.756835938 385 688 c 2
 742 567 l 1
225 260 m 1
 273.334960938 150.609375 372.994140625 128 531 128 c 0
 674.272460938 128 836 125.614257812 836 270 c 0
 836 356.381835938 794.168945312 381.875976562 729 405 c 1
 286 554 l 2
 183.706054688 588.09765625 125 669.850585938 125 802 c 256
 125 935.15625 194.337890625 1012.71777344 295 1050 c 1
 215.05859375 1094.67285156 153 1164.68359375 153 1281 c 0
 153 1515.15332031 377.24609375 1545 611 1545 c 0
 756.338867188 1545 875.37890625 1535.07421875 958.5 1472.5 c 128
 988.166992188 1450.16699219 1013.33300781 1418.66699219 1034 1378 c 0
 1034 1377.33300781 1027.5 1371.83300781 1014.5 1361.5 c 128
 1001.5 1351.16699219 987.333007812 1339.66699219 972 1327 c 2
 910 1277 l 1
 859.4296875 1385.7265625 765.94921875 1409 606 1409 c 0
 477.064453125 1409 324 1409.78222656 324 1286 c 0
 324 1219.0546875 356.786132812 1199.14160156 410 1181 c 2
 799 1047 l 1
 922.724609375 1005.75878906 1037 935.095703125 1037 773 c 0
 1037 638.059570312 968.8046875 550.630859375 874 510 c 1
 959.702148438 461.866210938 1010 405.247070312 1010 283 c 0
 1010 18.8349609375 798.1328125 -20 535 -20 c 0
 326.625 -20 180.455078125 17.7744140625 111 159 c 1
 225 260 l 1
EndSplineSet
EndChar

StartChar: dieresis
Encoding: 168 168 101
Width: 903
GlyphClass: 2
Flags: HW
LayerCount: 2
Fore
SplineSet
354 1376 m 0
 354 1299.62011719 322.890625 1272 247 1272 c 256
 171.112304688 1272 140 1299.61914062 140 1376 c 0
 140 1459.02050781 166.884765625 1490 247 1490 c 256
 327.10546875 1490 354 1459.01171875 354 1376 c 0
771 1376 m 0
 771 1299.62011719 739.890625 1272 664 1272 c 256
 588.112304688 1272 557 1299.61914062 557 1376 c 0
 557 1459.02050781 583.884765625 1490 664 1490 c 256
 744.10546875 1490 771 1459.01171875 771 1376 c 0
EndSplineSet
EndChar

StartChar: copyright
Encoding: 169 169 102
Width: 1705
GlyphClass: 2
Flags: HW
LayerCount: 2
Fore
SplineSet
100 734 m 0
 100 974.379882812 200.82421875 1151.40039062 326 1273 c 128
 448.619140625 1392.11523438 620.4921875 1489 854 1489 c 0
 1092.78808594 1489 1265.68554688 1389.70019531 1388 1266.5 c 128
 1475.75488281 1178.109375 1543.31347656 1066.99609375 1581 933 c 128
 1599 869 1608 802.666992188 1608 734 c 0
 1608 492.59375 1507.57324219 316.985351562 1382 195 c 128
 1293.42285156 108.953125 1182.26269531 42.4716796875 1049 6 c 128
 985.666992188 -11.3330078125 920.666992188 -20 854 -20 c 0
 620.74609375 -20 439.142578125 80.4609375 317.5 204.5 c 128
 197.768554688 326.590820312 100 506.744140625 100 734 c 0
231 734 m 0
 231 539.200195312 313.90625 385.194335938 416 282.5 c 128
 515.856445312 182.055664062 666.08203125 100 854 100 c 0
 1051.41015625 100 1196.65820312 184.124023438 1296.5 287.5 c 128
 1396.72851562 391.276367188 1478 536.306640625 1478 734 c 0
 1478 929.896484375 1394.3828125 1083.6171875 1291.5 1186.5 c 128
 1191.48828125 1286.51171875 1041.20996094 1369 854 1369 c 0
 657.91015625 1369 507.883789062 1282.79296875 407.5 1177 c 128
 309.4609375 1073.67773438 231 922.552734375 231 734 c 0
1208 414 m 1
 1143.40820312 314.420898438 1043.890625 280 878 280 c 0
 652.311523438 280 521.833007812 339.607421875 477.5 519 c 128
 463.166992188 577 456 649 456 735 c 256
 456 965.162109375 502.256835938 1115.23925781 678.5 1164.5 c 128
 732.166992188 1179.5 798.666992188 1187 878 1187 c 0
 1038.34960938 1187 1156.14550781 1150.70996094 1206 1051 c 1
 1118 970 l 1
 1080.56152344 1025.34375 1037.19042969 1058.5078125 954.5 1064.5 c 128
 931.5 1066.16699219 906 1067 878 1067 c 0
 721.3359375 1067 642.408203125 1031.69628906 618 900.5 c 128
 610 857.5 606 802.333007812 606 735 c 0
 606 569.059570312 617.219726562 441.321289062 745.5 412 c 128
 780.5 404 824.666992188 400 878 400 c 0
 1002.32910156 400 1069.43066406 420.676757812 1118 497 c 1
 1208 414 l 1
EndSplineSet
EndChar

StartChar: ordfeminine
Encoding: 170 170 103
Width: 875
GlyphClass: 2
Flags: HW
LayerCount: 2
Fore
SplineSet
463 1485 m 0
 643.3515625 1485 735 1415.625 735 1235 c 2
 735 818 l 1
 637 818 l 1
 618 894 l 1
 570.125976562 820.012695312 474.969726562 806 347 806 c 0
 193.51953125 806 114 860.309570312 114 1006 c 0
 114 1200.06738281 277.236328125 1212.31347656 468 1215 c 0
 529.788085938 1215 566.754882812 1215.12207031 607 1195 c 1
 607 1247 l 2
 607 1342.91894531 555.001953125 1376 461 1376 c 0
 412.637695312 1376 369.120117188 1371.19042969 325 1366 c 0
 270.670898438 1359.06445312 246.82421875 1341.66894531 221 1314 c 1
 150 1381 l 1
 166.70703125 1405.30078125 179.8515625 1427.72070312 206 1443.5 c 128
 267.352539062 1480.5234375 363.676757812 1485 463 1485 c 0
372 909 m 0
 488.09375 909 604 924.323242188 604 1039 c 0
 604 1069.6953125 595.844726562 1096.2578125 587 1119 c 1
 577.666992188 1120.33300781 568.333007812 1121 559 1121 c 130
 487 1121 l 1
 372.908203125 1117.31933594 241 1119.50878906 241 1006 c 0
 241 924.826171875 288.663085938 909 372 909 c 0
EndSplineSet
EndChar

StartChar: guillemotleft
Encoding: 171 171 104
Width: 1004
GlyphClass: 2
Flags: HW
LayerCount: 2
Fore
SplineSet
489 532 m 1
 507 575 l 1
 770 932 l 1
 904 879 l 1
 671 542 l 1
 904 204 l 1
 770 151 l 1
 489 532 l 1
103 532 m 1
 121 575 l 1
 384 932 l 1
 518 879 l 1
 285 542 l 1
 518 204 l 1
 384 151 l 1
 103 532 l 1
EndSplineSet
EndChar

StartChar: logicalnot
Encoding: 172 172 105
Width: 1221
GlyphClass: 2
Flags: HW
LayerCount: 2
Fore
SplineSet
929 651 m 1
 116 651 l 1
 116 799 l 1
 1077 799 l 1
 1077 251 l 1
 929 251 l 1
 929 651 l 1
EndSplineSet
EndChar

StartChar: registered
Encoding: 174 174 106
Width: 1705
GlyphClass: 2
Flags: HW
LayerCount: 2
Fore
SplineSet
100 734 m 0
 100 974.379882812 200.82421875 1151.40039062 326 1273 c 128
 448.619140625 1392.11523438 620.4921875 1489 854 1489 c 0
 1092.78808594 1489 1265.68554688 1389.70019531 1388 1266.5 c 128
 1475.75488281 1178.109375 1543.31347656 1066.99609375 1581 933 c 128
 1599 869 1608 802.666992188 1608 734 c 0
 1608 492.59375 1507.57324219 316.985351562 1382 195 c 128
 1293.42285156 108.953125 1182.26269531 42.4716796875 1049 6 c 128
 985.666992188 -11.3330078125 920.666992188 -20 854 -20 c 0
 620.74609375 -20 439.142578125 80.4609375 317.5 204.5 c 128
 197.768554688 326.590820312 100 506.744140625 100 734 c 0
231 734 m 0
 231 539.200195312 313.90625 385.194335938 416 282.5 c 128
 515.856445312 182.055664062 666.08203125 100 854 100 c 0
 1051.41015625 100 1196.65820312 184.124023438 1296.5 287.5 c 128
 1396.72851562 391.276367188 1478 536.306640625 1478 734 c 0
 1478 929.896484375 1394.3828125 1083.6171875 1291.5 1186.5 c 128
 1191.48828125 1286.51171875 1041.20996094 1369 854 1369 c 0
 657.91015625 1369 507.883789062 1282.79296875 407.5 1177 c 128
 309.4609375 1073.67773438 231 922.552734375 231 734 c 0
1079 294 m 1
 1018.40820312 411.396484375 950.994140625 541.010742188 887 653 c 1
 682 653 l 1
 682 294 l 1
 568 294 l 1
 568 1176 l 1
 765 1176 l 2
 990.118164062 1176 1171 1150.29394531 1171 926 c 0
 1171 779.112304688 1114.82324219 708.520507812 1001 676 c 1
 1011 657.5 l 130
 1074.46191406 540.095703125 1145.55566406 410.278320312 1212 294 c 1
 1079 294 l 1
792 749 m 2
 948.747070312 749 1054 756.353515625 1054 916 c 0
 1054 1035.51464844 1002.87988281 1070.80371094 890 1077.5 c 128
 850.666992188 1079.83300781 802.333007812 1081 745 1081 c 2
 682 1081 l 1
 682 749 l 1
 792 749 l 2
EndSplineSet
EndChar

StartChar: macron
Encoding: 175 175 107
Width: 1389
GlyphClass: 2
Flags: HW
LayerCount: 2
Fore
SplineSet
1215 1556 m 1
 179 1556 l 1
 179 1696 l 1
 1215 1696 l 1
 1215 1556 l 1
EndSplineSet
EndChar

StartChar: degree
Encoding: 176 176 108
Width: 842
GlyphClass: 2
Flags: HW
LayerCount: 2
Fore
SplineSet
421 873 m 0
 277.405273438 873 179.942382812 959.901367188 136.5 1062.5 c 128
 120.833007812 1099.5 113 1138.66699219 113 1180 c 0
 113 1322.63964844 200.100585938 1420.32910156 302 1464 c 128
 339.333007812 1480 379 1488 421 1488 c 0
 564.651367188 1488 662.0390625 1399.140625 705.5 1296.5 c 128
 721.166992188 1259.5 729 1220.66699219 729 1180 c 0
 729 1035.07617188 640 937.864257812 535.5 895.5 c 128
 498.5 880.5 460.333007812 873 421 873 c 0
235 1180 m 0
 235 1094.46289062 287.52734375 1035.890625 348.5 1009.5 c 128
 370.833007812 999.833007812 395 995 421 995 c 0
 507.352539062 995 565.71875 1047.57226562 593 1108.5 c 128
 603 1130.83300781 608 1154.66699219 608 1180 c 256
 608 1266.484375 554.34765625 1325.93457031 493 1353 c 128
 470.333007812 1363 446.333007812 1368 421 1368 c 0
 334.477539062 1368 275.642578125 1313.70117188 249.5 1251.5 c 128
 239.833007812 1228.5 235 1204.66699219 235 1180 c 0
EndSplineSet
EndChar

StartChar: plusminus
Encoding: 177 177 109
Width: 1200
GlyphClass: 2
Flags: HW
LayerCount: 2
Fore
SplineSet
528 623 m 1
 121 623 l 1
 121 771 l 1
 528 771 l 1
 528 1137 l 1
 675 1137 l 1
 675 771 l 1
 1082 771 l 1
 1082 623 l 1
 675 623 l 1
 675 259 l 1
 528 259 l 1
 528 623 l 1
121 151 m 1
 1082 151 l 1
 1082 0 l 1
 121 0 l 1
 121 151 l 1
EndSplineSet
EndChar

StartChar: acute
Encoding: 180 180 110
Width: 638
GlyphClass: 2
Flags: HW
LayerCount: 2
Fore
SplineSet
119 1229 m 1
 198.282226562 1331.7734375 267.684570312 1459.85644531 335 1574 c 1
 551 1574 l 1
 464.211914062 1450.39355469 357.5390625 1325.46191406 245 1229 c 1
 119 1229 l 1
EndSplineSet
EndChar

StartChar: mu
Encoding: 181 181 111
Width: 1323
GlyphClass: 2
Flags: HW
LayerCount: 2
Fore
SplineSet
656 -19 m 0
 519.6640625 -19 410.1875 -8.404296875 342 57 c 1
 344 -28 l 2
 345.333007812 -44 346 -61.3330078125 346 -80 c 130
 346 -451 l 1
 166 -451 l 1
 166 1080 l 1
 346 1080 l 1
 346 441 l 2
 346 291.799804688 366.77734375 191.584960938 475 150.5 c 128
 511 136.833007812 558.666992188 130 618 130 c 0
 814.294921875 130 936.688476562 182.766601562 974 337.5 c 128
 985.333007812 384.5 991 439.666992188 991 503 c 2
 991 1080 l 1
 1171 1080 l 1
 1171 0 l 1
 1018 0 l 1
 1000 158 l 1
 992 158 l 1
 929.98046875 40.8515625 832.782226562 -19 656 -19 c 0
EndSplineSet
EndChar

StartChar: paragraph
Encoding: 182 182 112
Width: 1238
GlyphClass: 2
Flags: HW
LayerCount: 2
Fore
SplineSet
92 1079 m 0
 92 1379.25683594 228.12109375 1532 524 1532 c 2
 1069 1532 l 1
 1069 -176 l 1
 935 -176 l 1
 935 1382 l 1
 726 1382 l 1
 726 -176 l 1
 591 -176 l 1
 591 650 l 1
 562.450195312 644.809570312 533.130859375 642 500 642 c 0
 217.904296875 642 92 792.822265625 92 1079 c 0
EndSplineSet
EndChar

StartChar: periodcentered
Encoding: 183 183 113
Width: 526
GlyphClass: 2
Flags: HW
LayerCount: 2
Fore
SplineSet
131 688 m 0
 131 773.4453125 181.748046875 831 266 831 c 256
 350.251953125 831 401 773.440429688 401 688 c 256
 401 602.721679688 350.377929688 545 266 545 c 256
 181.668945312 545 131 602.310546875 131 688 c 0
EndSplineSet
EndChar

StartChar: cedilla
Encoding: 184 184 114
Width: 691
GlyphClass: 2
Flags: HW
LayerCount: 2
Fore
SplineSet
371 -132 m 1
 476.818359375 -132 554 -200.399414062 554 -307 c 0
 554 -457.694335938 427.297851562 -516 277 -516 c 0
 222.8515625 -516 166.73828125 -507.432617188 124 -494 c 1
 136 -395 l 1
 166.654296875 -406.627929688 217.337890625 -411 256 -411 c 0
 331.556640625 -411 405 -385.641601562 405 -311 c 0
 405 -226.34375 316.111328125 -219.008789062 238 -213 c 1
 195 -193 l 1
 311 0 l 1
 426 0 l 1
 345 -131 l 1
 371 -132 l 1
EndSplineSet
EndChar

StartChar: ordmasculine
Encoding: 186 186 115
Width: 931
GlyphClass: 2
Flags: HW
LayerCount: 2
Fore
SplineSet
464 806 m 0
 249.728515625 806 119 909.352539062 119 1124 c 0
 119 1326.45117188 177.423828125 1440.47167969 344 1473.5 c 128
 382.666992188 1481.16699219 423.333007812 1485 466 1485 c 0
 702.705078125 1485 811 1379.54785156 811 1147 c 0
 811 908.956054688 697.692382812 806 464 806 c 0
464 914 m 0
 612.858398438 914 679 982.47265625 679 1133 c 0
 679 1258.41699219 653.16796875 1348.16601562 554 1368 c 128
 527.333007812 1373.33300781 497.333007812 1376 464 1376 c 0
 318.541992188 1376 257.258789062 1317.99414062 252 1176 c 2
 251 1147 l 1
 251 1025.19921875 280.264648438 939.961914062 377.5 921.5 c 128
 403.833007812 916.5 432.666992188 914 464 914 c 0
EndSplineSet
EndChar

StartChar: guillemotright
Encoding: 187 187 116
Width: 1010
GlyphClass: 2
Flags: HW
LayerCount: 2
Fore
SplineSet
346 542 m 1
 113 879 l 1
 247 932 l 1
 528 550 l 1
 510 506 l 1
 247 151 l 1
 113 204 l 1
 346 542 l 1
732 542 m 1
 500 879 l 1
 633 932 l 1
 721.151367188 811.793945312 808.84765625 695.20703125 897 575 c 1
 915 532 l 1
 633 151 l 1
 500 204 l 1
 732 542 l 1
EndSplineSet
EndChar

StartChar: questiondown
Encoding: 191 191 117
Width: 1104
GlyphClass: 2
Flags: HW
LayerCount: 2
Fore
SplineSet
598 -413 m 0
 289.666015625 -413 85 -331.724609375 85 -29 c 0
 85 154.647460938 142.270507812 253.079101562 258.5 318 c 128
 295.5 338.666992188 337.333007812 359.333007812 384 380 c 1
 450.49609375 429.4453125 523.88671875 471.411132812 560.5 547 c 128
 570.833007812 568.333007812 576 593 576 621 c 2
 576 649 l 1
 723 649 l 1
 723 611 l 2
 723 443.841796875 663.28125 370.22265625 558 306.5 c 128
 520 283.5 474.333007812 258 421 230 c 1
 344.64453125 191.822265625 284.48828125 156.141601562 266.5 65 c 128
 261.5 39.6669921875 259 9 259 -27 c 0
 259 -162.485351562 311.057617188 -222.775390625 426.5 -245.5 c 128
 468.833007812 -253.833007812 522.333007812 -258 587 -258 c 0
 732.448242188 -258 855.677734375 -254.587890625 907 -169.5 c 128
 919.666992188 -148.5 931.666992188 -123.333007812 943 -94 c 1
 1015 -86 l 1
 1028 -168 l 1
 1037.30957031 -212.219726562 1043.38085938 -253.057617188 1045 -300 c 1
 938.123046875 -384.165039062 788.799804688 -413 598 -413 c 0
679 824 m 1
 598.78515625 824 542.11328125 855.958007812 519 918 c 1
 519 1004.09570312 553.08984375 1064.33691406 605 1094 c 1
 685.443359375 1094 741.66796875 1061.40039062 765 1000 c 1
 765 911.146484375 733.66796875 853.549804688 679 824 c 1
EndSplineSet
EndChar

StartChar: AE
Encoding: 198 198 124
Width: 2066
GlyphClass: 2
Flags: HW
LayerCount: 2
Fore
SplineSet
1040 1305 m 1
 916 1305 l 1
 554 583 l 1
 1040 583 l 1
 1040 1305 l 1
811 1469 m 1
 1937 1469 l 1
 1937 1305 l 1
 1231 1305 l 1
 1231 846 l 1
 1896 846 l 1
 1896 683 l 1
 1231 683 l 1
 1231 164 l 1
 1943 164 l 1
 1943 0 l 1
 1040 0 l 1
 1040 418 l 1
 475 418 l 1
 266 0 l 1
 67 0 l 1
 811 1469 l 1
EndSplineSet
EndChar

StartChar: germandbls
Encoding: 223 223 144
Width: 1350
GlyphClass: 2
Flags: HW
LayerCount: 2
Fore
SplineSet
956 1222 m 0
 956 1372.87402344 806.37109375 1401 652 1401 c 0
 482.158203125 1401 373.041992188 1374.87695312 352.5 1233.5 c 128
 346.833007812 1194.5 344 1147.33300781 344 1092 c 2
 344 0 l 1
 164 0 l 1
 164 1180 l 2
 164 1457.00097656 349.645507812 1545 627 1545 c 0
 903.668945312 1545 1138 1483.640625 1138 1212 c 0
 1138 1106.45117188 1094.97949219 1040.15625 1036.5 986.5 c 128
 965.266601562 921.141601562 869.729492188 875.784179688 770 832 c 1
 770 819 l 1
 884.431640625 748.864257812 1006.06054688 685.987304688 1102.5 605.5 c 128
 1180.24511719 540.615234375 1249 459.4765625 1249 327 c 0
 1249 64.201171875 1080.94433594 -19 820 -19 c 0
 695.838867188 -19 609.502929688 16.2060546875 523 52 c 1
 523 201 l 1
 601.444335938 165.834960938 695.584960938 128 806 128 c 0
 969.51953125 128 1065 166.227539062 1065 329 c 0
 1065 405.751953125 1016.94238281 461.200195312 972.5 503.5 c 128
 888.034179688 583.89453125 771.565429688 647.541015625 667 707 c 128
 633 726.333007812 603.333007812 745 578 763 c 1
 578 886 l 1
 642 918.666992188 697.666992188 946.166992188 745 968.5 c 128
 854.274414062 1020.05957031 956 1069.65722656 956 1222 c 0
EndSplineSet
EndChar

StartChar: ae
Encoding: 230 230 151
Width: 2026
GlyphClass: 2
Flags: HW
LayerCount: 2
Fore
SplineSet
526 -20 m 0
 266.084960938 -20 113 56.751953125 113 314 c 0
 113 389.9765625 117.348632812 457.578125 139 509 c 1
 883 659 l 1
 883 690 l 2
 883 827.885742188 853.469726562 915.5625 743.5 940 c 128
 710.5 947.333007812 670 951 622 951 c 0
 441.325195312 951 331.76953125 906.174804688 235 827 c 1
 141 941 l 1
 250.66015625 1050.66015625 394.537109375 1099 616 1099 c 0
 785.991210938 1099 908.922851562 1071.07128906 984 983 c 1
 1070.19042969 1079.59277344 1214.29101562 1099 1408 1099 c 0
 1667.35742188 1099 1834.83300781 1035.87890625 1881.5 831 c 128
 1895.16699219 771 1902 701 1902 621 c 1
 1907 519 l 1
 1063 519 l 1
 1069.17773438 348.09375 1077.79101562 204.610351562 1203.5 156.5 c 128
 1267.36035156 132.059570312 1346.34277344 129.170898438 1440 128 c 1
 1600.36132812 128 1702.72753906 172.700195312 1783 250 c 1
 1868 133 l 1
 1768.26269531 26.787109375 1638.23046875 -20 1437 -20 c 0
 1206.99609375 -20 1041.20605469 19.4072265625 956 164 c 1
 882.342773438 42.181640625 721.581054688 -20 526 -20 c 0
1725 653 m 1
 1725 751.321289062 1725.11816406 829.766601562 1681 881 c 128
 1629.34179688 940.990234375 1533.45410156 951 1408 951 c 0
 1249.15722656 951 1126.49707031 938.7734375 1086.5 824 c 128
 1069.40332031 774.940429688 1067.86328125 717.436523438 1063 653 c 1
 1725 653 l 1
293 395 m 1
 289.061881662 365.456899794 287 334.606262479 287 301 c 0
 287 152.244140625 374.426757812 127 524 127 c 0
 693.71875 127 812.178710938 192.306640625 860.5 311.5 c 128
 875.5 348.5 883 388.333007812 883 431 c 2
 883 524 l 1
 293 395 l 1
EndSplineSet
EndChar

StartChar: dotlessi
Encoding: 305 305 173
Width: 500
GlyphClass: 2
Flags: HW
LayerCount: 2
Fore
SplineSet
159 1080 m 1
 340 1080 l 1
 340 0 l 1
 159 0 l 1
 159 1080 l 1
EndSplineSet
EndChar

StartChar: OE
Encoding: 338 338 174
Width: 2150
GlyphClass: 2
Flags: HW
LayerCount: 2
Fore
SplineSet
900 0 m 2
 567.068359375 0 319.38671875 61.3193359375 203 276.5 c 128
 141.950195312 389.37109375 117 535.640625 117 715 c 0
 117 1072.58203125 199.640625 1310.54296875 455.5 1408.5 c 128
 578.014648438 1455.40527344 727.521484375 1470 901 1470 c 2
 2018 1470 l 1
 2018 1305 l 1
 1313 1305 l 1
 1313 846 l 1
 1979 846 l 1
 1979 683 l 1
 1313 683 l 1
 1313 164 l 1
 2030 164 l 1
 2030 0 l 1
 900 0 l 2
965.5 152 m 130
 1010.44140625 152 1058.5078125 153 1098 153 c 130
 1119 153 l 1
 1119 1313 l 1
 888 1313 l 2
 693.759765625 1313 529.623046875 1300.75292969 433 1207.5 c 128
 330.901367188 1108.96289062 315 925.862304688 315 718 c 0
 315 412.533203125 374.0078125 220.778320312 622 173 c 128
 694.666992188 159 783 152 887 152 c 2
 965.5 152 l 130
EndSplineSet
EndChar

StartChar: oe
Encoding: 339 339 175
Width: 2176
GlyphClass: 2
Flags: HW
LayerCount: 2
Fore
SplineSet
1125 130 m 1
 1038.68945312 7.4951171875 872.96484375 -20 662 -20 c 0
 474.349609375 -20 329.809570312 -1.32421875 236.5 87 c 128
 137.069335938 181.118164062 112 334.01953125 112 541 c 256
 112 837.624023438 169.212890625 1027.17773438 407 1077 c 128
 477 1091.66699219 562 1099 662 1099 c 0
 863.5859375 1099 1026.3203125 1073.84960938 1115 963 c 1
 1198.44238281 1075.21582031 1359.49023438 1099 1558 1099 c 0
 1817.35742188 1099 1984.83300781 1035.87890625 2031.5 831 c 128
 2045.16699219 771 2052 701 2052 621 c 2
 2052 519 l 1
 1212 519 l 1
 1218.18261719 347.936523438 1226.703125 204.24609375 1353 156.5 c 128
 1417.41015625 132.149414062 1495.99121094 129.174804688 1590 128 c 1
 1746.64355469 128 1845.92089844 172.920898438 1923 250 c 1
 2018 133 l 1
 1918.26269531 26.787109375 1788.23046875 -20 1587 -20 c 0
 1378.25195312 -20 1214.61328125 11.39453125 1125 130 c 1
662 128 m 256
 795.515625 128 913.245117188 131.509765625 971 202.5 c 128
 1030.87011719 276.08984375 1028 413.23828125 1028 552 c 1
 1025.97070312 726.5546875 1028.89160156 876.127929688 902.5 924.5 c 128
 838.278320312 949.078125 757.541992188 951 662 951 c 0
 529.256835938 951 411.442382812 948.900390625 353 879.5 c 128
 293.629882812 808.998046875 296 676.19921875 296 541 c 256
 296 364.125 292.029296875 205.568359375 417.5 156 c 128
 482.18359375 130.446289062 564.615234375 128 662 128 c 256
1875 653 m 1
 1875 751.321289062 1875.11816406 829.766601562 1831 881 c 128
 1779.34179688 940.990234375 1683.45410156 951 1558 951 c 0
 1400.62109375 951 1275.27636719 938.829101562 1237 824 c 128
 1220.55664062 774.668945312 1218.84667969 717.213867188 1214 653 c 1
 1875 653 l 1
EndSplineSet
EndChar

StartChar: Ydieresis
Encoding: 376 376 176
Width: 1450
GlyphClass: 2
Flags: HW
LayerCount: 2
Fore
SplineSet
630 581 m 1
 53 1469 l 1
 278 1469 l 1
 726 746 l 1
 1176 1469 l 1
 1399 1469 l 1
 822 588 l 1
 822 0 l 1
 630 0 l 1
 630 581 l 1
559 1836 m 1
 597.276367188 1809.50097656 624 1761.10546875 624 1693 c 1
 606.70703125 1648.53222656 561.079101562 1623 502 1623 c 1
 463.53125 1650.0703125 437 1698.91796875 437 1767 c 1
 454.396484375 1812.97753906 498.450195312 1836 559 1836 c 1
952 1836 m 1
 990.254882812 1809.515625 1016 1761.06054688 1016 1693 c 1
 998.70703125 1648.53222656 953.079101562 1623 894 1623 c 1
 856.575195312 1650.34863281 830 1699.390625 830 1767 c 1
 847.396484375 1812.97753906 891.450195312 1836 952 1836 c 1
EndSplineSet
EndChar

StartChar: florin
Encoding: 402 402 177
Width: 1188
GlyphClass: 2
Flags: HW
LayerCount: 2
Fore
SplineSet
126 -451 m 0
 78.580078125 -451 34.6181640625 -445.203125 17 -415 c 1
 17 -284 l 1
 57.17578125 -294.043945312 99.6640625 -303 148 -303 c 0
 402.873046875 -303 401.126953125 -90.3134765625 423 143 c 1
 462 779 l 1
 210 779 l 1
 210 877 l 1
 473 922 l 1
 494.768554688 1183.22070312 521.515625 1409.78710938 741 1469.5 c 128
 786.333007812 1481.83300781 838 1488 896 1488 c 0
 990.318359375 1488 1053.5390625 1472.95605469 1128 1457 c 1
 1096 1314 l 1
 1027.81542969 1327.11230469 979.513671875 1338 901 1338 c 0
 741.841796875 1338 698.233398438 1259.83105469 676.5 1119 c 128
 668.166992188 1065 660.666992188 998 654 918 c 1
 954 918 l 1
 954 779 l 1
 644 779 l 1
 601 -44 l 1
 586.61328125 -259.80078125 511.985351562 -392.365234375 326.5 -432.5 c 128
 269.5 -444.833007812 202.666992188 -451 126 -451 c 0
EndSplineSet
EndChar

StartChar: circumflex
Encoding: 710 710 178
Width: 941
GlyphClass: 2
Flags: HW
LayerCount: 2
Fore
SplineSet
471 1447 m 1
 400.583984375 1371.5546875 329.306640625 1294.00195312 253 1229 c 1
 120 1229 l 1
 141.853515625 1283.63378906 199.354492188 1345.21484375 239.5 1394 c 128
 284.5078125 1448.69238281 344.509765625 1516.90625 380 1574 c 1
 564 1574 l 1
 620.840820312 1482.56054688 711.965820312 1387.59667969 777.5 1302.5 c 128
 799.833007812 1273.5 815.333007812 1249 824 1229 c 1
 689 1229 l 1
 613.509765625 1293.30664062 539.07421875 1371.36230469 471 1447 c 1
EndSplineSet
EndChar

StartChar: caron
Encoding: 711 711 179
Width: 914
GlyphClass: 2
Flags: HW
LayerCount: 2
Fore
SplineSet
461 1355 m 1
 530.569335938 1432.15820312 600.85546875 1507.7265625 677 1574 c 1
 828 1574 l 1
 555 1229 l 1
 367 1229 l 1
 94 1574 l 1
 245 1574 l 1
 321.086914062 1507.77636719 391.484375 1432.09960938 461 1355 c 1
EndSplineSet
EndChar

StartChar: breve
Encoding: 728 728 180
Width: 898
GlyphClass: 2
Flags: HW
LayerCount: 2
Fore
SplineSet
786 1533 m 1
 769.99609375 1346.29101562 649.485351562 1233 447 1233 c 0
 245.9609375 1233 137.736328125 1346.19042969 124 1533 c 1
 231 1533 l 1
 243.58203125 1412.20898438 321.592773438 1378 454 1378 c 0
 581.081054688 1378 657.873046875 1423.02246094 677 1533 c 1
 786 1533 l 1
EndSplineSet
EndChar

StartChar: dotaccent
Encoding: 729 729 181
Width: 537
GlyphClass: 2
Flags: HW
LayerCount: 2
Fore
SplineSet
404 1349 m 0
 404 1256.32617188 363.9609375 1221 272 1221 c 256
 180.041015625 1221 140 1256.32617188 140 1349 c 0
 140 1449.66796875 174.911132812 1490 272 1490 c 256
 369.076171875 1490 404 1449.65527344 404 1349 c 0
EndSplineSet
EndChar

StartChar: ring
Encoding: 730 730 182
Width: 741
GlyphClass: 2
Flags: HW
LayerCount: 2
Fore
SplineSet
375 1591 m 0
 298.185546875 1591 247 1540.23730469 247 1464 c 0
 247 1386.11425781 297.456054688 1336 375 1336 c 0
 450.69140625 1336 501 1387.70800781 501 1464 c 0
 501 1538.83203125 449.552734375 1591 375 1591 c 0
134 1464 m 0
 134 1607.91113281 232.171875 1699 375 1699 c 0
 489.9296875 1699 567.696289062 1636.59472656 601.5 1554.5 c 128
 613.166992188 1526.16699219 619 1496.33300781 619 1465 c 0
 619 1348.49316406 550.677734375 1275.20703125 464.5 1244.5 c 128
 435.5 1234.16699219 405.666992188 1229 375 1229 c 0
 257.140625 1229 182.252929688 1287.828125 150 1373.5 c 128
 139.333007812 1401.83300781 134 1432 134 1464 c 0
EndSplineSet
EndChar

StartChar: ogonek
Encoding: 731 731 183
Width: 603
GlyphClass: 2
Flags: HW
LayerCount: 2
Fore
SplineSet
347 -439 m 0
 220.73046875 -439 133 -389.657226562 133 -269 c 0
 133 -172.705078125 189.456054688 -101.549804688 241 -52.5 c 128
 261.666992188 -32.8330078125 283 -15.3330078125 305 0 c 1
 426 0 l 1
 379.333007812 -46 343.5 -88.6669921875 318.5 -128 c 128
 293.5 -167.333007812 281 -205.666992188 281 -243 c 0
 281 -296.939453125 318.836914062 -331 375 -331 c 0
 403.857421875 -331 437.298828125 -327.771484375 461 -321 c 1
 469 -419 l 1
 437.428710938 -429.102539062 388.39453125 -439 347 -439 c 0
EndSplineSet
EndChar

StartChar: tilde
Encoding: 732 732 184
Width: 1015
GlyphClass: 2
Flags: HW
LayerCount: 2
Fore
SplineSet
683 1387 m 0
 759.57421875 1387 777.05078125 1446.48144531 793 1508 c 1
 898 1508 l 1
 890.0859375 1395.23046875 841.533203125 1303.78613281 762 1263 c 128
 736 1249.66699219 707.666992188 1243 677 1243 c 0
 612.8203125 1243 553.912109375 1277.48535156 507 1301.5 c 128
 462.502929688 1324.27832031 408.177734375 1360 350 1360 c 0
 276.719726562 1360 251.635742188 1304.62597656 239 1238 c 1
 135 1238 l 1
 143.494140625 1348.42089844 189.387695312 1437.78320312 266 1481 c 128
 292 1495.66699219 321.666992188 1503 355 1503 c 0
 423.0625 1503 482.315429688 1470.58691406 530 1445 c 128
 573.711914062 1421.54492188 624.869140625 1387 683 1387 c 0
EndSplineSet
EndChar

StartChar: hungarumlaut
Encoding: 733 733 185
Width: 945
GlyphClass: 2
Flags: HW
LayerCount: 2
Fore
SplineSet
119 1229 m 1
 198.166992188 1331.62402344 267.682617188 1459.85351562 335 1574 c 1
 551 1574 l 1
 464.211914062 1450.39355469 357.5390625 1325.46191406 245 1229 c 1
 119 1229 l 1
426 1229 m 1
 505.166992188 1331.62402344 574.682617188 1459.85351562 642 1574 c 1
 858 1574 l 1
 771.211914062 1450.39355469 664.5390625 1325.46191406 552 1229 c 1
 426 1229 l 1
EndSplineSet
EndChar

StartChar: uni03A9
Encoding: 937 937 186
Width: 1655
GlyphClass: 2
Flags: HW
LayerCount: 2
Fore
SplineSet
1276 821 m 0
 1276 1130.02832031 1150.57324219 1321 842 1321 c 256
 533.426757812 1321 408 1130.02734375 408 821 c 0
 408 486.475585938 546.1015625 286.509765625 750 147 c 1
 750 0 l 1
 158 0 l 1
 158 164 l 1
 512 164 l 1
 375.370117188 264.895507812 279.018554688 420.22265625 234 614 c 128
 218.666992188 680 211 750.333007812 211 825 c 0
 211 1140.70605469 342.1484375 1347.05957031 569.5 1438 c 128
 647.833007812 1469.33300781 738.666992188 1485 842 1485 c 0
 1157.60839844 1485 1353.453125 1335.11523438 1432.5 1097 c 128
 1459.5 1015.66699219 1473 925 1473 825 c 0
 1473 590.724609375 1398.33300781 409.999023438 1292 279.5 c 128
 1255.33300781 234.5 1215.33300781 196 1172 164 c 1
 1526 164 l 1
 1526 0 l 1
 934 0 l 1
 934 147 l 1
 1137.92089844 286.524414062 1276 486.448242188 1276 821 c 0
EndSplineSet
EndChar

StartChar: pi
Encoding: 960 960 187
Width: 1481
GlyphClass: 2
Flags: HW
LayerCount: 2
Fore
SplineSet
1299 13 m 1
 1262.59472656 -6.6025390625 1207.78320312 -18 1150 -18 c 0
 1008.07226562 -18 942.650390625 56.052734375 932.5 183.5 c 128
 929.5 221.166992188 928 259.666992188 928 299 c 2
 928 891 l 1
 522 891 l 1
 522 0 l 1
 327 0 l 1
 327 891 l 1
 132 891 l 1
 132 1009 l 1
 258 1063 l 1
 1318 1063 l 1
 1318 891 l 1
 1123 891 l 1
 1123 369 l 2
 1123 264.366210938 1106.73046875 142 1209 142 c 0
 1243.95410156 142 1275.56738281 151.284179688 1299 163 c 1
 1299 13 l 1
EndSplineSet
EndChar

StartChar: endash
Encoding: 8211 8211 188
Width: 1195
GlyphClass: 2
Flags: HW
LayerCount: 2
Fore
SplineSet
146 630 m 1
 1060 630 l 1
 1060 464 l 1
 146 464 l 1
 146 630 l 1
EndSplineSet
EndChar

StartChar: emdash
Encoding: 8212 8212 189
Width: 2219
GlyphClass: 2
Flags: HW
LayerCount: 2
Fore
SplineSet
146 630 m 1
 2084 630 l 1
 2084 464 l 1
 146 464 l 1
 146 630 l 1
EndSplineSet
EndChar

StartChar: quoteleft
Encoding: 8216 8216 190
Width: 525
GlyphClass: 2
Flags: HW
LayerCount: 2
Fore
SplineSet
411 1431 m 1
 367.03125 1301.6796875 344.412109375 1146.13183594 335 972 c 1
 111 972 l 1
 138.919921875 1173.64746094 205.965820312 1354.53027344 318 1469 c 1
 411 1431 l 1
EndSplineSet
EndChar

StartChar: quoteright
Encoding: 8217 8217 191
Width: 523
GlyphClass: 2
Flags: HW
LayerCount: 2
Fore
SplineSet
116 1010 m 1
 160.146484375 1139.84375 182.625976562 1294.01367188 192 1469 c 1
 416 1469 l 1
 388.080078125 1267.35253906 321.034179688 1086.46972656 209 972 c 1
 116 1010 l 1
EndSplineSet
EndChar

StartChar: quotesinglbase
Encoding: 8218 8218 192
Width: 531
GlyphClass: 2
Flags: HW
LayerCount: 2
Fore
SplineSet
168 16 m 1
 178.05078125 92.640625 186.896484375 170.286132812 194 247 c 1
 398 247 l 1
 408 215 l 1
 396.688476562 145.716796875 379.150390625 78.17578125 364 10 c 0
 341.970703125 -87.7529296875 307.924804688 -178.951171875 254 -247 c 1
 212.666992188 -251 168.666992188 -253 122 -253 c 1
 124.666992188 -237.666992188 127 -222 129 -206 c 130
 135 -158 l 1
 166.77734375 -123.459960938 179.42578125 -84.4853515625 186 -24 c 1
 168 16 l 1
EndSplineSet
EndChar

StartChar: quotedblleft
Encoding: 8220 8220 193
Width: 914
GlyphClass: 2
Flags: HW
LayerCount: 2
Fore
SplineSet
411 1431 m 1
 367.03125 1301.6796875 344.412109375 1146.13183594 335 972 c 1
 111 972 l 1
 138.919921875 1173.64746094 205.965820312 1354.53027344 318 1469 c 1
 411 1431 l 1
800 1431 m 1
 756.03125 1301.6796875 733.412109375 1146.13183594 724 972 c 1
 500 972 l 1
 527.919921875 1173.64746094 594.965820312 1354.53027344 707 1469 c 1
 800 1431 l 1
EndSplineSet
EndChar

StartChar: quotedblright
Encoding: 8221 8221 194
Width: 912
GlyphClass: 2
Flags: HW
LayerCount: 2
Fore
SplineSet
505 1010 m 1
 549.146484375 1139.84375 571.625976562 1294.01367188 581 1469 c 1
 805 1469 l 1
 777.080078125 1267.35253906 710.034179688 1086.46972656 598 972 c 1
 505 1010 l 1
116 1010 m 1
 160.146484375 1139.84375 182.625976562 1294.01367188 192 1469 c 1
 416 1469 l 1
 388.080078125 1267.35253906 321.034179688 1086.46972656 209 972 c 1
 116 1010 l 1
EndSplineSet
EndChar

StartChar: quotedblbase
Encoding: 8222 8222 195
Width: 928
GlyphClass: 2
Flags: HW
LayerCount: 2
Fore
SplineSet
564 16 m 1
 574.051757812 92.642578125 581.893554688 170.254882812 589 247 c 1
 794 247 l 1
 804 204 l 1
 777.163085938 31.052734375 733.408203125 -130.317382812 649 -247 c 1
 609 -251 565.333007812 -253 518 -253 c 1
 528.666992188 -190.333007812 541.483398438 -122.099609375 552 -59 c 1
 577.049804688 -59 581 -48.6689453125 581 -23 c 1
 564 16 l 1
168 16 m 1
 178.05078125 92.640625 186.896484375 170.286132812 194 247 c 1
 398 247 l 1
 408 215 l 1
 396.688476562 145.716796875 379.150390625 78.17578125 364 10 c 0
 341.774414062 -87.236328125 307.725585938 -179.546875 253 -247 c 1
 213 -251 169.333007812 -253 122 -253 c 1
 126.109375 -221.491210938 129.833007812 -189 135 -158 c 1
 167.915039062 -123.713867188 179.373046875 -84.9716796875 186 -24 c 1
 168 16 l 1
EndSplineSet
EndChar

StartChar: dagger
Encoding: 8224 8224 196
Width: 990
GlyphClass: 2
Flags: HW
LayerCount: 2
Fore
SplineSet
426 978 m 1
 71 978 l 1
 71 1126 l 1
 426 1126 l 1
 388 1532 l 1
 588 1532 l 1
 551 1146 l 1
 919 1146 l 1
 919 978 l 1
 588 999 l 1
 588 0 l 1
 426 0 l 1
 426 978 l 1
EndSplineSet
EndChar

StartChar: daggerdbl
Encoding: 8225 8225 197
Width: 1035
GlyphClass: 2
Flags: HW
LayerCount: 2
Fore
SplineSet
425 789 m 1
 457 1022 l 1
 96 1022 l 1
 96 1170 l 1
 457 1170 l 1
 419 1532 l 1
 619 1532 l 1
 582 1190 l 1
 943 1190 l 1
 943 1043 l 1
 582 1043 l 1
 613 754 l 1
 582 510 l 1
 943 510 l 1
 943 363 l 1
 582 363 l 1
 619 0 l 1
 419 0 l 1
 457 342 l 1
 96 342 l 1
 96 490 l 1
 457 490 l 1
 425 789 l 1
EndSplineSet
EndChar

StartChar: bullet
Encoding: 8226 8226 198
Width: 805
GlyphClass: 2
Flags: HW
LayerCount: 2
Fore
SplineSet
125 746 m 0
 125 924.998046875 227.989257812 1043 404 1043 c 0
 540.98828125 1043 626.6796875 969.196289062 664 867.5 c 128
 677.333007812 831.166992188 684 790.666992188 684 746 c 0
 684 601.818359375 614.609375 506.169921875 510.5 467 c 128
 476.833007812 454.333007812 441.333007812 448 404 448 c 0
 226.431640625 448 125 567.581054688 125 746 c 0
EndSplineSet
EndChar

StartChar: ellipsis
Encoding: 8230 8230 199
Width: 1689
GlyphClass: 2
Flags: HW
LayerCount: 2
Fore
SplineSet
295 251 m 1
 349.206054688 234.4375 381 191.682617188 381 116 c 0
 381 70.6669921875 372.666992188 33 356 3 c 1
 318.48828125 -12.0048828125 271.879882812 -20 221 -20 c 1
 167.713867188 -3.7177734375 135 42.2890625 135 116 c 0
 135 163.125976562 143.563476562 199.866210938 160 230 c 1
 199.497070312 244.014648438 242.998046875 251 295 251 c 1
973 103 m 0
 973 33.7412109375 940.713867188 -7.951171875 888 -20 c 1
 813 -20 l 1
 759.606445312 0.763671875 727 51.453125 727 130 c 0
 727 200.12109375 758.3984375 240.3828125 813 251 c 1
 888 251 l 1
 940.912109375 229.834960938 973 182.178710938 973 103 c 0
1480 -20 m 1
 1398.1875 -20 1342.38964844 12.216796875 1319 75 c 1
 1319 163.4296875 1351.31445312 221.174804688 1405 251 c 1
 1485.83789062 251 1542.94433594 220.100585938 1566 157 c 1
 1566 69.3154296875 1531.93164062 11.1591796875 1480 -20 c 1
EndSplineSet
EndChar

StartChar: perthousand
Encoding: 8240 8240 200
Width: 2554
GlyphClass: 2
Flags: HW
LayerCount: 2
Fore
SplineSet
615 1023 m 0
 615 1163.03125 618.8046875 1302.53808594 526.5 1343 c 128
 502.166992188 1353.66699219 469.666992188 1359 429 1359 c 0
 258.24609375 1359 248 1235.92578125 248 1064 c 0
 248 933.026367188 243.883789062 812.171875 327.5 767.5 c 128
 351.833007812 754.5 385.666992188 748 429 748 c 0
 591.03125 748 615 858.216796875 615 1023 c 0
1178 1474 m 1
 1327 1474 l 1
 617 -5 l 1
 467 -5 l 1
 1178 1474 l 1
1547 387 m 0
 1547 527.153320312 1550.90917969 665.491210938 1458.5 706 c 128
 1434.16699219 716.666992188 1402 722 1362 722 c 0
 1190.38183594 722 1180 600.625976562 1180 428 c 0
 1180 296.19140625 1176.30859375 176.478515625 1260.5 131.5 c 128
 1284.83300781 118.5 1318.66699219 112 1362 112 c 0
 1523.07421875 112 1547 223.415039062 1547 387 c 0
429 617 m 0
 240.470703125 617 151.809570312 696.637695312 121 855.5 c 128
 110.333007812 910.5 105 976.666992188 105 1054 c 0
 105 1256.45117188 132.202148438 1413.31542969 276 1465.5 c 128
 317.333007812 1480.5 368.333007812 1488 429 1488 c 0
 620.298828125 1488 711.072265625 1407.97070312 741.5 1247 c 128
 751.833007812 1192.33300781 757 1128 757 1054 c 0
 757 849.40234375 728.395507812 689.032226562 581.5 638.5 c 128
 539.833007812 624.166992188 489 617 429 617 c 0
1362 -19 m 0
 1172.26367188 -19 1083.97070312 58.8076171875 1053 218.5 c 128
 1042.33300781 273.5 1037 340 1037 418 c 0
 1037 621.22265625 1063.98730469 778.543945312 1209 830 c 128
 1250.33300781 844.666992188 1301.33300781 852 1362 852 c 0
 1551.6171875 852 1640.94042969 772.178710938 1672 613 c 128
 1682.66699219 558.333007812 1688.33300781 493.333007812 1689 418 c 0
 1689 213.057617188 1661 54.568359375 1514.5 3 c 128
 1472.83300781 -11.6669921875 1422 -19 1362 -19 c 0
2128 -19 m 0
 1938.62988281 -19 1850.91015625 59.12109375 1820 218.5 c 128
 1809.33300781 273.5 1804 340 1804 418 c 0
 1804 620.491210938 1830.52246094 778.733398438 1975 830 c 128
 2016.33300781 844.666992188 2067.33300781 852 2128 852 c 0
 2317.61816406 852 2407.9375 771.196289062 2439 612 c 128
 2449.66699219 557.333007812 2455.33300781 492.666992188 2456 418 c 0
 2456 213.057617188 2428 54.568359375 2281.5 3 c 128
 2239.83300781 -11.6669921875 2188.66699219 -19 2128 -19 c 0
2128 112 m 0
 2288.62304688 112 2313 223.6875 2313 387 c 0
 2313 526.038085938 2317.65625 661.622070312 2227 704.5 c 128
 2202.33300781 716.166992188 2169.33300781 722 2128 722 c 256
 1956.00292969 722 1946 589.817382812 1946 417 c 0
 1946 286.427734375 1945.515625 172.2421875 2030 130 c 128
 2054 118 2086.66699219 112 2128 112 c 0
EndSplineSet
EndChar

StartChar: guilsinglleft
Encoding: 8249 8249 201
Width: 618
GlyphClass: 2
Flags: HW
LayerCount: 2
Fore
SplineSet
103 532 m 1
 121 575 l 1
 384 932 l 1
 518 879 l 1
 285 542 l 1
 518 204 l 1
 384 151 l 1
 103 532 l 1
EndSplineSet
EndChar

StartChar: guilsinglright
Encoding: 8250 8250 202
Width: 623
GlyphClass: 2
Flags: HW
LayerCount: 2
Fore
SplineSet
346 542 m 1
 113 879 l 1
 247 932 l 1
 510 575 l 1
 528 532 l 1
 247 151 l 1
 113 204 l 1
 346 542 l 1
EndSplineSet
EndChar

StartChar: fraction
Encoding: 8260 8260 203
Width: 1188
GlyphClass: 2
Flags: HW
LayerCount: 2
Fore
SplineSet
979 1474 m 1
 1141 1474 l 1
 206 -5 l 1
 45 -5 l 1
 979 1474 l 1
EndSplineSet
EndChar

StartChar: Euro
Encoding: 8364 8364 204
Width: 1487
GlyphClass: 2
Flags: HW
LayerCount: 2
Fore
SplineSet
923 1326 m 0
 799.013671875 1326 702.91796875 1317.56445312 631 1266 c 128
 544.721679688 1204.13964844 509.408203125 1094.09960938 488 951 c 1
 1175 951 l 1
 1150 809 l 1
 472 809 l 1
 469.33203125 783.649414062 469.333984375 757.682617188 468 731 c 2
 465 655 l 1
 1084 655 l 1
 1057 513 l 1
 467 513 l 1
 475.357421875 335.408203125 510.995117188 204.489257812 652 163.5 c 128
 713.639648438 145.58203125 787.6875 143 870 143 c 0
 1004.23046875 143 1106.42675781 146.098632812 1183.5 201 c 128
 1207.83300781 218.333007812 1231.66699219 242.666992188 1255 274 c 1
 1378 161 l 1
 1293.25878906 58.96484375 1199.38671875 -0.75390625 1030.5 -14 c 128
 979.5 -18 920 -20 852 -20 c 0
 564.129882812 -20 383.787109375 49.8779296875 311 262 c 128
 287.666992188 330 273.666992188 413.666992188 269 513 c 1
 85 513 l 1
 111 655 l 1
 267 655 l 1
 270 731 l 2
 271.333984375 757.681640625 271.331054688 783.649414062 274 809 c 1
 85 809 l 1
 111 951 l 1
 290 951 l 1
 329.798828125 1220.54785156 427.177734375 1399.25878906 668.5 1461.5 c 128
 742.166992188 1480.5 829.666992188 1490 931 1490 c 0
 1167.75488281 1490 1344.21777344 1458.53515625 1423 1304 c 1
 1294 1194 l 1
 1241.10546875 1275.10546875 1183.70410156 1314.90429688 1060 1322.5 c 128
 1022 1324.83300781 976.333007812 1326 923 1326 c 0
EndSplineSet
EndChar

StartChar: trademark
Encoding: 8482 8482 205
Width: 1725
GlyphClass: 2
Flags: HW
LayerCount: 2
Fore
SplineSet
901 1040 m 0
 901 927.884765625 899 820.717773438 899 708 c 1
 763 708 l 1
 763 1469 l 1
 974 1469 l 1
 1165 910 l 1
 1362 1469 l 1
 1568 1469 l 1
 1568 708 l 1
 1429 708 l 1
 1429 1188 l 130
 1429 1199.33300781 1429.16699219 1211.16699219 1429.5 1223.5 c 130
 1430.5 1260.5 l 130
 1430.83300781 1272.83300781 1431.33300781 1284 1432 1294 c 1
 1426 1294 l 1
 1215 708 l 1
 1107 708 l 1
 902 1294 l 1
 896 1294 l 1
 899.884765625 1208.54492188 901 1127.5625 901 1040 c 0
612 1472 m 0
 650.083984375 1472 657 1445.33789062 657 1402 c 2
 657 1349 l 1
 439 1349 l 1
 439 708 l 1
 300 708 l 1
 300 1349 l 1
 255.950195312 1349 213.55859375 1346 172 1346 c 2
 136 1346 l 130
 95.19140625 1346 84 1372.12109375 84 1416 c 2
 84 1469 l 1
 533 1469 l 2
 559.388671875 1469 586.576171875 1472 612 1472 c 0
EndSplineSet
EndChar

StartChar: partialdiff
Encoding: 8706 8706 206
Width: 1190
GlyphClass: 2
Flags: HW
LayerCount: 2
Fore
SplineSet
593 1316 m 0
 491.233398438 1316 400.552734375 1274.76757812 338 1227 c 1
 299 1391 l 1
 381.666992188 1447 487.333007812 1475 616 1475 c 0
 956.296875 1475 1078 1206.94335938 1078 869 c 0
 1078 656.142578125 1036.63964844 467.442382812 968.5 316.5 c 128
 916.069335938 200.356445312 838.541015625 105.790039062 733 43 c 128
 667.998046875 4.328125 592.69140625 -20 496 -20 c 0
 231.456054688 -20 98 135.778320312 98 396 c 0
 98 618.274414062 186.829101562 789.647460938 317 885.5 c 128
 386.263671875 936.502929688 475.385742188 972 592 972 c 0
 725.057617188 972 816.500976562 913.124023438 879 835 c 1
 879.666992188 840.333007812 880 846.166992188 880 852.5 c 130
 880 871 l 2
 880 1055.10644531 842.70703125 1208.72753906 730.5 1280.5 c 128
 693.5 1304.16699219 647.666992188 1316 593 1316 c 0
300 396 m 0
 300 247.4140625 349.208984375 142 498 142 c 0
 623.905273438 142 700.083007812 224.801757812 750 305.5 c 128
 804.9453125 394.329101562 842.1640625 508.168945312 856 635 c 1
 839.276367188 718.619140625 777.974609375 779.569335938 704.5 807 c 128
 679.5 816.333007812 653.666992188 821 627 821 c 0
 429.67578125 821 337.34375 659.473632812 308.5 491.5 c 128
 302.833007812 458.5 300 426.666992188 300 396 c 0
EndSplineSet
EndChar

StartChar: Delta
Encoding: 8710 8710 207
Width: 1291
GlyphClass: 2
Flags: HW
LayerCount: 2
Fore
SplineSet
61 0 m 1
 97 171 l 1
 542 1461 l 1
 745 1461 l 1
 1198 170 l 1
 1236 0 l 1
 61 0 l 1
745 903 m 2
 705.750976562 1017.06738281 670.361328125 1122.57128906 642 1239 c 1
 611.999023438 1127.56835938 580.33984375 1017.27148438 544 907 c 2
 299 180 l 1
 994 180 l 1
 745 903 l 2
EndSplineSet
EndChar

StartChar: product
Encoding: 8719 8719 208
Width: 1510
GlyphClass: 2
Flags: HW
LayerCount: 2
Fore
SplineSet
1147 -474 m 1
 1147 1288 l 1
 363 1288 l 1
 363 -474 l 1
 172 -474 l 1
 172 1469 l 1
 1338 1469 l 1
 1338 -474 l 1
 1147 -474 l 1
EndSplineSet
EndChar

StartChar: summation
Encoding: 8721 8721 209
Width: 1311
GlyphClass: 2
Flags: HW
LayerCount: 2
Fore
SplineSet
68 -474 m 1
 68 -338 l 1
 691 517 l 1
 87 1331 l 1
 87 1467 l 1
 1208 1467 l 1
 1208 1288 l 1
 363 1288 l 1
 931 519 l 1
 336 -295 l 1
 1261 -295 l 1
 1261 -474 l 1
 68 -474 l 1
EndSplineSet
EndChar

StartChar: radical
Encoding: 8730 8730 210
Width: 1277
GlyphClass: 2
Flags: HW
LayerCount: 2
Fore
SplineSet
702 -152 m 1
 542 -152 l 1
 254 584 l 1
 98 568 l 1
 71 724 l 1
 370 769 l 1
 610 140 l 1
 1068 1668 l 1
 1243 1668 l 1
 702 -152 l 1
EndSplineSet
EndChar

StartChar: infinity
Encoding: 8734 8734 211
Width: 1542
GlyphClass: 2
Flags: HW
LayerCount: 2
Fore
SplineSet
1424 659 m 0
 1424 505.204101562 1343.23535156 397.471679688 1235 350 c 128
 1197 333.333007812 1156 325 1112 325 c 0
 983.96875 325 901.930664062 388.872070312 839.5 459 c 128
 815.166992188 486.333007812 792.666992188 516 772 548 c 1
 713.383789062 464.802734375 642.911132812 385.4453125 541 347.5 c 128
 509.666992188 335.833007812 476 330 440 330 c 0
 284.211914062 330 186.50390625 413.663085938 145.5 530 c 128
 131.166992188 570.666992188 124 615 124 663 c 0
 124 818.524414062 202.78125 923.787109375 313.5 970 c 128
 351.833007812 986 393 994 437 994 c 0
 564.3203125 994 647.385742188 924.58203125 708.5 854 c 128
 732.166992188 826.666992188 754 797.666992188 774 767 c 1
 830.2421875 853.373046875 905.80078125 932.372070312 1008 972 c 128
 1040.66699219 984.666992188 1075.66699219 991 1113 991 c 0
 1269.06054688 991 1364.80664062 902.579101562 1404 785 c 128
 1417.33300781 745 1424 703 1424 659 c 0
1103 477 m 0
 1208.4375 477 1273 552.794921875 1273 658 c 0
 1273 739.470703125 1232.22167969 795.595703125 1176.5 823 c 128
 1156.16699219 833 1133.33300781 838 1108 838 c 0
 1014.31933594 838 956.247070312 780.697265625 911.5 727 c 128
 893.166992188 705 876 681.333007812 860 656 c 1
 892.666992188 602.666992188 928.833007812 559.5 968.5 526.5 c 128
 1008.16699219 493.5 1053 477 1103 477 c 0
686 660 m 1
 644.099609375 729.833984375 590.380859375 797.27734375 511.5 827 c 128
 488.5 835.666992188 464.333007812 840 439 840 c 256
 337.806640625 840 275 760.345703125 275 660 c 0
 275 558.821289062 336.0390625 482 437 482 c 0
 488.333007812 482 534.166992188 498.166992188 574.5 530.5 c 128
 614.833007812 562.833007812 652 606 686 660 c 1
EndSplineSet
EndChar

StartChar: integral
Encoding: 8747 8747 212
Width: 851
GlyphClass: 2
Flags: HW
LayerCount: 2
Fore
SplineSet
631 1571 m 0
 704.096679688 1571 770.6328125 1551.06738281 804 1510 c 1
 804 1466.50195312 800.474609375 1423.55371094 794 1386 c 1
 787.76953125 1384.75390625 781.180664062 1384 774 1384 c 0
 717.083007812 1384 668.637695312 1398.70507812 626 1412.5 c 128
 614.666992188 1416.16699219 605.333007812 1418 598 1418 c 0
 521.984375 1418 515 1330.77832031 515 1255 c 0
 515 1217.56152344 517 1181.43945312 517 1144 c 2
 517 -34 l 2
 517 -300.029296875 456.421875 -473 190 -473 c 0
 110.56640625 -473 38.81640625 -466.388671875 31.5 -402 c 128
 29.8330078125 -387.333007812 29 -371 29 -353 c 0
 29 -329 32.3330078125 -307 39 -287 c 1
 42.3330078125 -286.333007812 46 -286 50 -286 c 130
 63 -286 l 2
 94.3505859375 -286 139.830078125 -295.052734375 166 -301 c 1
 191.220703125 -312.559570312 209.766601562 -325 239 -325 c 0
 316.790039062 -325 324 -217.05859375 324 -138 c 0
 324 -107.544921875 323 -74.4541015625 323 -44 c 2
 323 992 l 2
 323 1243.28320312 317.78125 1486.24902344 504 1552.5 c 128
 538.666992188 1564.83300781 581 1571 631 1571 c 0
EndSplineSet
EndChar

StartChar: approxequal
Encoding: 8776 8776 213
Width: 1210
GlyphClass: 2
Flags: HW
LayerCount: 2
Fore
SplineSet
823 819 m 0
 886.012695312 819 942.232421875 854.674804688 980 883 c 0
 1004.66699219 901.666992188 1027.66699219 923 1049 947 c 1
 1083 824 l 1
 1048.27539062 765.236328125 1003.21386719 725.94140625 938 694 c 128
 905.333007812 678 867 670 823 670 c 0
 737.80078125 670 661.041015625 706.2734375 593.5 731.5 c 128
 544.555664062 749.780273438 494.046875 770.12890625 445.5 784 c 128
 424.5 790 407 793 393 793 c 0
 328.978515625 793 274.21484375 757.661132812 236 729 c 0
 211.333007812 710.333007812 188.333007812 689 167 665 c 1
 133 788 l 1
 181.778320312 868.671875 264.375 942 393 942 c 0
 476.306640625 942 558.717773438 906.950195312 624 880.5 c 128
 662.666992188 864.833007812 699.166992188 850.666992188 733.5 838 c 128
 767.833007812 825.333007812 797.666992188 819 823 819 c 0
823 498 m 0
 886.012695312 498 942.232421875 533.674804688 980 562 c 0
 1004.66699219 580.666992188 1027.66699219 602 1049 626 c 1
 1083 503 l 1
 1048.27539062 444.236328125 1003.21386719 404.94140625 938 373 c 128
 905.333007812 357 867 349 823 349 c 0
 737.80078125 349 661.041015625 385.2734375 593.5 410.5 c 128
 544.555664062 428.780273438 494.046875 449.12890625 445.5 463 c 128
 424.5 469 407 472 393 472 c 0
 328.978515625 472 274.21484375 436.661132812 236 408 c 0
 211.333007812 389.333007812 188.333007812 368 167 344 c 1
 133 467 l 1
 181.778320312 547.671875 264.375 621 393 621 c 0
 476.306640625 621 558.717773438 585.950195312 624 559.5 c 128
 662.666992188 543.833007812 699.166992188 529.666992188 733.5 517 c 128
 767.833007812 504.333007812 797.666992188 498 823 498 c 0
EndSplineSet
EndChar

StartChar: notequal
Encoding: 8800 8800 214
Width: 1174
GlyphClass: 2
Flags: HW
LayerCount: 2
Fore
SplineSet
541 362 m 1
 402 73 l 1
 247 143 l 1
 352 362 l 1
 105 362 l 1
 105 535 l 1
 435 535 l 1
 556 787 l 1
 105 787 l 1
 105 960 l 1
 638 960 l 1
 779 1252 l 1
 936 1181 l 1
 829 960 l 1
 1076 960 l 1
 1076 787 l 1
 746 787 l 1
 624 535 l 1
 1076 535 l 1
 1076 362 l 1
 541 362 l 1
EndSplineSet
EndChar

StartChar: lessequal
Encoding: 8804 8804 215
Width: 1219
GlyphClass: 2
Flags: HW
LayerCount: 2
Fore
SplineSet
121 629 m 1
 121 770 l 1
 1092 1212 l 1
 1092 1029 l 1
 347 705 l 1
 1092 413 l 1
 1092 230 l 1
 121 629 l 1
121 -24 m 1
 121 148 l 1
 1092 148 l 1
 1092 -24 l 1
 121 -24 l 1
EndSplineSet
EndChar

StartChar: greaterequal
Encoding: 8805 8805 216
Width: 1220
GlyphClass: 2
Flags: HW
LayerCount: 2
Fore
SplineSet
133 230 m 1
 133 413 l 1
 881 705 l 1
 133 1028 l 1
 133 1212 l 1
 1104 770 l 1
 1104 629 l 1
 133 230 l 1
133 -24 m 1
 133 148 l 1
 1104 148 l 1
 1104 -24 l 1
 133 -24 l 1
EndSplineSet
EndChar

StartChar: lozenge
Encoding: 9674 9674 217
Width: 1094
GlyphClass: 2
Flags: HW
LayerCount: 2
Fore
SplineSet
608 -23 m 1
 490 -23 l 1
 68 733 l 1
 490 1493 l 1
 608 1493 l 1
 1031 734 l 1
 608 -23 l 1
550 1270 m 1
 265 734 l 1
 550 197 l 1
 835 734 l 1
 550 1270 l 1
EndSplineSet
EndChar

StartChar: uniFB01
Encoding: 64257 64257 218
Width: 1237
GlyphClass: 2
Flags: HW
LayerCount: 2
Fore
SplineSet
625 1392 m 0
 492.591796875 1392 460 1312.61914062 460 1179 c 2
 460 1080 l 1
 1070 1080 l 1
 1070 0 l 1
 890 0 l 1
 890 938 l 1
 460 938 l 1
 460 0 l 1
 280 0 l 1
 280 938 l 1
 75 938 l 1
 75 1039 l 1
 280 1081 l 1
 280 1147 l 2
 280 1355.7109375 338.654296875 1493.47558594 505 1526.5 c 128
 550.333007812 1535.5 599.333007812 1540 652 1540 c 0
 712.603515625 1540 769.159179688 1528.3828125 816 1515 c 1
 784 1373 l 1
 735.009765625 1383.31347656 683.068359375 1392 625 1392 c 0
875 1395 m 0
 875 1459.83300781 913.801757812 1496 982 1496 c 256
 1050.21777344 1496 1089 1459.85058594 1089 1395 c 0
 1089 1324.33300781 1053.33300781 1289 982 1289 c 256
 910.666992188 1289 875 1324.33300781 875 1395 c 0
EndSplineSet
EndChar

StartChar: uniFB02
Encoding: 64258 64258 219
Width: 1239
GlyphClass: 2
Flags: HW
LayerCount: 2
Fore
SplineSet
625 1392 m 0
 492.591796875 1392 460 1312.61914062 460 1179 c 2
 460 1080 l 1
 788 1080 l 1
 788 938 l 1
 460 938 l 1
 460 0 l 1
 280 0 l 1
 280 938 l 1
 75 938 l 1
 75 1039 l 1
 280 1081 l 1
 280 1147 l 2
 280 1355.7109375 338.654296875 1493.47558594 505 1526.5 c 128
 550.333007812 1535.5 599.333007812 1540 652 1540 c 0
 757.145507812 1540 850.088867188 1537.72558594 946 1532 c 1
 1070 1522 l 1
 1070 0 l 1
 890 0 l 1
 890 1384 l 1
 804.041015625 1387.30566406 712.58203125 1392 625 1392 c 0
EndSplineSet
EndChar

StartChar: Eth
Encoding: 208 208 225
Width: 1673
Flags: HW
LayerCount: 2
Fore
SplineSet
85 811 m 1
 215 811 l 1
 215 1469 l 1
 797 1469 l 2
 1042.62304688 1469 1261.08007812 1463.828125 1387 1350.5 c 128
 1520.86328125 1230.0234375 1537 995.888671875 1537 731 c 256
 1537 466.779296875 1522.89941406 233.603515625 1387 115 c 128
 1260.75195312 4.8203125 1040.90722656 0 797 0 c 2
 215 0 l 1
 215 645 l 1
 85 645 l 1
 85 811 l 1
406 1308 m 1
 406 811 l 1
 606 811 l 1
 606 645 l 1
 406 645 l 1
 406 161 l 1
 797 161 l 2
 983.204101562 161 1168.99511719 149.452148438 1258 241 c 128
 1311.75390625 296.2890625 1328.14355469 387.719726562 1334 499 c 128
 1337.33300781 562.333007812 1339 639.666992188 1339 731 c 0
 1339 884.129882812 1341.61914062 1014.13183594 1311 1123 c 128
 1273.58496094 1256.03027344 1177.26367188 1293.8515625 1013.5 1303 c 128
 953.833007812 1306.33300781 881.666992188 1308 797 1308 c 2
 406 1308 l 1
EndSplineSet
EndChar

StartChar: currency
Encoding: 164 164 226
Width: 1012
GlyphClass: 2
Flags: HW
LayerCount: 2
Fore
SplineSet
668 828 m 1
 621.23046875 812.41015625 566.516601562 806 505 806 c 0
 446.16796875 806 393.3984375 811.731445312 348 826 c 1
 229 650 l 1
 113 650 l 1
 262 870 l 1
 190.939453125 925.108398438 158 1015.11328125 158 1147 c 0
 158 1274.95410156 188.150390625 1365.11230469 264 1422 c 1
 113 1644 l 1
 230 1644 l 1
 351 1465 l 1
 395.4375 1478.88671875 445.561523438 1485 505 1485 c 0
 567.124023438 1485 619.236328125 1478.25488281 665 1463 c 1
 788 1644 l 1
 905 1644 l 1
 751 1418 l 1
 821.764648438 1361.13574219 852 1270.3125 852 1147 c 0
 852 1018.63378906 820.010742188 928.987304688 752 874 c 1
 905 650 l 1
 789 650 l 1
 668 828 l 1
290 1133 m 0
 290 981.791015625 355.693359375 914 505 914 c 256
 653.858398438 914 720 982.47265625 720 1133 c 0
 720 1258.41699219 694.16796875 1348.16601562 595 1368 c 128
 568.333007812 1373.33300781 538.333007812 1376 505 1376 c 256
 392.284179688 1376 332.48046875 1348.93652344 305 1261 c 128
 295 1229 290 1186.33300781 290 1133 c 0
EndSplineSet
EndChar

StartChar: multiply
Encoding: 215 215 227
Width: 986
GlyphClass: 2
Flags: HW
LayerCount: 2
Fore
SplineSet
590 658 m 1
 878 370 l 1
 774 266 l 1
 486 554 l 1
 198 266 l 1
 94 370 l 1
 382 658 l 1
 95 945 l 1
 199 1049 l 1
 486 762 l 1
 773 1049 l 1
 877 945 l 1
 590 658 l 1
EndSplineSet
EndChar

StartChar: thorn
Encoding: 254 254 230
Width: 1346
Flags: HW
LayerCount: 2
Fore
SplineSet
1038 541 m 0
 1038 715.491210938 1033.77929688 860.068359375 917.5 916 c 128
 856.973632812 945.114257812 778.374023438 951 683 951 c 0
 489.377929688 951 392.70703125 893.080078125 366.5 728.5 c 128
 358.166992188 676.166992188 354 613 354 539 c 0
 354 335.012695312 374.73046875 181.172851562 531.5 143.5 c 128
 574.5 133.166992188 627.333007812 128 690 128 c 0
 823.483398438 128 931.758789062 142.262695312 985.5 217.5 c 128
 1037.97265625 290.9609375 1038 411.004882812 1038 541 c 0
730 -20 m 0
 544.631835938 -20 415.938476562 29.0419921875 352 152 c 1
 350 152 l 1
 350 -338 l 1
 174 -338 l 1
 174 1530 l 1
 354 1530 l 1
 354 1090 l 2
 354 1042.11523438 351.48046875 985.240234375 348 940 c 1
 397.201171875 1046.60253906 528.685546875 1098 690 1098 c 0
 976.678710938 1098 1149.88867188 1039.94824219 1200 809 c 128
 1215.33300781 738.333007812 1223 650.333007812 1223 545 c 0
 1223 269.102539062 1184.34765625 81.1533203125 980.5 12.5 c 128
 916.166992188 -9.1669921875 832.666992188 -20 730 -20 c 0
EndSplineSet
EndChar

StartChar: Thorn
Encoding: 222 222 231
Width: 1427
GlyphClass: 2
Flags: HW
LayerCount: 2
Fore
SplineSet
174 1469 m 1
 365 1469 l 1
 365 1293 l 1
 735 1293 l 2
 981.879882812 1293 1185.05371094 1268.875 1264 1105.5 c 128
 1288 1055.83300781 1300 991.666992188 1300 913 c 0
 1300 668.76171875 1210.18945312 542.76953125 1010.5 500.5 c 128
 914.458007812 480.169921875 803.28125 478 684 478 c 2
 365 478 l 1
 365 0 l 1
 174 0 l 1
 174 1469 l 1
649 638 m 2
 834.43359375 638 1018.66308594 622.326171875 1079.5 744 c 128
 1096.5 778 1105 826.666992188 1105 890 c 0
 1105 1061.60546875 1012.33984375 1119.8046875 851.5 1128 c 128
 799.166992188 1130.66699219 742 1132 680 1132 c 2
 365 1132 l 1
 365 638 l 1
 649 638 l 2
EndSplineSet
EndChar

StartChar: uni00AD
Encoding: 173 173 232
Width: 1085
GlyphClass: 2
Flags: HW
LayerCount: 2
Fore
SplineSet
138 651 m 1
 138 799 l 1
 951 799 l 1
 951 651 l 1
 138 651 l 1
EndSplineSet
EndChar

StartChar: eth
Encoding: 240 240 233
Width: 1411
Flags: HW
LayerCount: 2
Fore
SplineSet
1067 485 m 0
 1067 719.3515625 865.043945312 758 622 758 c 0
 448.96875 758 325.69921875 731.784179688 289.5 601 c 128
 279.166992188 563.666992188 274 518.333007812 274 465 c 0
 274 286.025390625 314.224609375 192.206054688 459 157.5 c 128
 507.666992188 145.833007812 571 140 649 140 c 0
 848.385742188 140 989.6328125 176.002929688 1042.5 319.5 c 128
 1058.83300781 363.833007812 1067 419 1067 485 c 0
621 908 m 0
 819.6328125 908 994.568359375 874.635742188 1054 732 c 1
 1064 732 l 1
 1064 770 l 2
 1064 1046.66503906 992.022460938 1234.60742188 834.5 1353 c 128
 782.166992188 1392.33300781 720.333007812 1425.33300781 649 1452 c 1
 696 1559 l 1
 904.107421875 1497.08398438 1067.51269531 1397.97363281 1155 1223 c 128
 1230.61132812 1071.77832031 1251 877.609375 1251 649 c 0
 1251 441.616210938 1230.05859375 271.015625 1142.5 154.5 c 128
 1050.09863281 31.541015625 895.518554688 -17 670 -17 c 0
 307.58984375 -17 94 99.6806640625 94 465 c 0
 94 707.188476562 190.115234375 838.001953125 386 884.5 c 128
 452 900.166992188 530.333007812 908 621 908 c 0
617 1228 m 1
 1338 1228 l 1
 1338 1111 l 1
 617 1111 l 1
 617 1228 l 1
EndSplineSet
EndChar

StartChar: twosuperior
Encoding: 178 178 234
Width: 1028
GlyphClass: 2
Flags: HW
LayerCount: 2
Fore
SplineSet
513 1490 m 0
 746.10546875 1490 909 1427.83105469 909 1202 c 0
 909 1068.4453125 881.229492188 996.697265625 802 940.5 c 128
 773.333007812 920.166992188 735.666992188 900 689 880 c 2
 473 787 l 2
 371.627929688 743.823242188 278 701.98046875 278 563 c 1
 880 563 l 1
 880 448 l 1
 131 448 l 1
 131 581 l 2
 131 714.340820312 203.126953125 778.451171875 290.5 828.5 c 128
 324.833007812 848.166992188 364 868 408 888 c 2
 617 983 l 2
 676.983398438 1009.88964844 724.284179688 1030.58789062 754.5 1072.5 c 128
 775.59375 1101.75976562 777.294921875 1130.65722656 780 1178 c 1
 780 1292.359375 740.42578125 1345.4609375 645 1365.5 c 128
 611.666992188 1372.5 570 1376 520 1376 c 0
 378.451171875 1376 267.53515625 1370.79980469 216 1280 c 1
 127 1360 l 1
 195.805664062 1471.51269531 335.033203125 1490 513 1490 c 0
EndSplineSet
EndChar

StartChar: threesuperior
Encoding: 179 179 235
Width: 1060
GlyphClass: 2
Flags: HW
LayerCount: 2
Fore
SplineSet
705 974 m 1
 853.958007812 955.833984375 934 894.395507812 934 738 c 0
 934 542.609375 843.974609375 456.258789062 668.5 441 c 128
 614.833007812 436.333007812 556.333007812 434 493 434 c 0
 349.052734375 434 228.05859375 443.78125 158.5 510.5 c 128
 142.166992188 526.166992188 127.333007812 543.666992188 114 563 c 1
 201 640 l 1
 247.46484375 587.7265625 285.796875 557.232421875 377 548.5 c 128
 408.333007812 545.5 449 544 499 544 c 0
 631.359375 544 742.922851562 548.350585938 784.5 636 c 128
 796.833007812 662 803 697 803 741 c 0
 803 904.47265625 672.657226562 916 512 916 c 2
 365 916 l 1
 365 1024 l 1
 510 1024 l 2
 656.978515625 1024 776 1066.84375 776 1216 c 0
 776 1371.12597656 654.134765625 1375 499 1375 c 0
 389.130859375 1375 303.350585938 1375.59570312 246.5 1328 c 128
 232.166992188 1316 217 1301 201 1283 c 1
 114 1360 l 1
 164.100585938 1430.140625 224.690429688 1464.71679688 336 1480.5 c 128
 380.666992188 1486.83300781 437.666992188 1490 507 1490 c 0
 728.73046875 1490 907 1450.62402344 907 1230 c 0
 907 1072.09179688 837.295898438 1002.80566406 705 978 c 1
 705 974 l 1
EndSplineSet
EndChar

StartChar: onesuperior
Encoding: 185 185 236
Width: 675
GlyphClass: 2
Flags: HW
LayerCount: 2
Fore
SplineSet
387 1339 m 1
 309.3515625 1268.28515625 217.576171875 1196.38085938 134 1128 c 1
 65 1216 l 1
 385 1467 l 1
 510 1467 l 1
 510 439 l 1
 383 439 l 1
 383 1069 l 2
 383 1158.8359375 387 1250.91503906 387 1339 c 1
EndSplineSet
EndChar

StartChar: foursuperior
Encoding: 8308 8308 237
Width: 1066
Flags: HW
LayerCount: 2
Fore
SplineSet
92 354 m 1
 682 1032 l 1
 834 1032 l 1
 834 342 l 1
 990 342 l 1
 990 225 l 1
 834 225 l 1
 834 0 l 1
 708 0 l 1
 708 225 l 1
 92 225 l 1
 92 354 l 1
714 342 m 1
 714 911 l 1
 555.767578125 714.565429688 384.0078125 531.659179688 219 342 c 1
 714 342 l 1
EndSplineSet
EndChar

StartChar: brokenbar
Encoding: 166 166 241
Width: 497
GlyphClass: 2
Flags: HW
LayerCount: 2
Fore
SplineSet
327 382 m 1
 327 -499 l 1
 172 -499 l 1
 172 382 l 1
 327 382 l 1
327 1550 m 1
 327 669 l 1
 172 669 l 1
 172 1550 l 1
 327 1550 l 1
EndSplineSet
EndChar

StartChar: fi
Encoding: 65537 -1 242
Width: 1220
GlyphClass: 2
Flags: HW
LayerCount: 2
Fore
SplineSet
614 1392 m 0
 481.591796875 1392 449 1312.61914062 449 1179 c 2
 449 1080 l 1
 1059 1080 l 1
 1059 0 l 1
 879 0 l 1
 879 938 l 1
 449 938 l 1
 449 0 l 1
 269 0 l 1
 269 938 l 1
 64 938 l 1
 64 1039 l 1
 269 1081 l 1
 269 1147 l 2
 269 1355.7109375 327.654296875 1493.47558594 494 1526.5 c 128
 539.333007812 1535.5 588.333007812 1540 641 1540 c 0
 701.603515625 1540 758.159179688 1528.3828125 805 1515 c 1
 773 1373 l 1
 724.009765625 1383.31347656 672.068359375 1392 614 1392 c 0
864 1395 m 0
 864 1459.83300781 902.801757812 1496 971 1496 c 256
 1039.21777344 1496 1078 1459.85058594 1078 1395 c 0
 1078 1324.33300781 1042.33300781 1289 971 1289 c 256
 899.666992188 1289 864 1324.33300781 864 1395 c 0
EndSplineSet
EndChar

StartChar: fl
Encoding: 65538 -1 243
Width: 1229
GlyphClass: 2
Flags: HW
LayerCount: 2
Fore
SplineSet
614 1392 m 0
 481.591796875 1392 449 1312.61914062 449 1179 c 2
 449 1080 l 1
 777 1080 l 1
 777 938 l 1
 449 938 l 1
 449 0 l 1
 269 0 l 1
 269 938 l 1
 64 938 l 1
 64 1039 l 1
 269 1081 l 1
 269 1147 l 2
 269 1355.7109375 327.654296875 1493.47558594 494 1526.5 c 128
 539.333007812 1535.5 588.333007812 1540 641 1540 c 0
 746.145507812 1540 839.088867188 1537.72558594 935 1532 c 1
 1059 1522 l 1
 1059 0 l 1
 879 0 l 1
 879 1384 l 1
 793.041015625 1387.30566406 701.58203125 1392 614 1392 c 0
EndSplineSet
EndChar

StartChar: uni0311
Encoding: 785 785 244
Width: 926
Flags: HW
LayerCount: 2
Fore
SplineSet
465 1388 m 0
 332.596679688 1388 254.583007812 1353.79296875 242 1233 c 1
 135 1233 l 1
 148.734375 1419.78515625 257.283203125 1533 458 1533 c 0
 660.654296875 1533 781.0078125 1419.578125 797 1233 c 1
 688 1233 l 1
 668.873046875 1342.98144531 592.08984375 1388 465 1388 c 0
EndSplineSet
EndChar

StartChar: uni030F
Encoding: 783 783 245
Width: 950
Flags: HW
LayerCount: 2
Fore
SplineSet
834 1229 m 1
 708 1229 l 1
 624.690429688 1300.40820312 544.857421875 1391.79003906 474 1479 c 128
 448 1511 424 1542.66699219 402 1574 c 1
 618 1574 l 1
 685.380859375 1459.74609375 754.850585938 1331.60058594 834 1229 c 1
527 1229 m 1
 401 1229 l 1
 317.690429688 1300.40820312 237.857421875 1391.79003906 167 1479 c 128
 141 1511 117 1542.66699219 95 1574 c 1
 311 1574 l 1
 378.380859375 1459.74609375 447.850585938 1331.60058594 527 1229 c 1
EndSplineSet
EndChar

StartChar: uni0326
Encoding: 806 806 246
Width: 656
Flags: HW
LayerCount: 2
Fore
SplineSet
172 -607 m 1
 216.146484375 -477.15625 238.625976562 -322.986328125 248 -148 c 1
 472 -148 l 1
 444.080078125 -349.647460938 377.034179688 -530.530273438 265 -645 c 1
 172 -607 l 1
EndSplineSet
EndChar

StartChar: Lslash
Encoding: 321 321 278
Width: 1326
Flags: HW
LayerCount: 2
Fore
SplineSet
83 745 m 1
 798 1004 l 1
 798 838 l 1
 83 579 l 1
 83 745 l 1
282 1469 m 1
 473 1469 l 1
 473 161 l 1
 1234 161 l 1
 1234 0 l 1
 282 0 l 1
 282 1469 l 1
EndSplineSet
EndChar

StartChar: lslash
Encoding: 322 322 279
Width: 730
Flags: HW
LayerCount: 2
Fore
SplineSet
83 745 m 1
 624 1004 l 1
 624 838 l 1
 83 579 l 1
 83 745 l 1
263 1532 m 1
 443 1532 l 1
 443 0 l 1
 263 0 l 1
 263 1532 l 1
EndSplineSet
EndChar

